<?xml version="1.0" encoding="utf-8"?>
<!-- Generator: Adobe Illustrator 15.0.0, SVG Export Plug-In . SVG Version: 6.00 Build 0)  -->
<!DOCTYPE svg PUBLIC "-//W3C//DTD SVG 1.1//EN" "http://www.w3.org/Graphics/SVG/1.1/DTD/svg11.dtd">
<svg version="1.1" id="Layer_1" xmlns="http://www.w3.org/2000/svg" xmlns:xlink="http://www.w3.org/1999/xlink" x="0px" y="0px"
	 width="60px" height="60px" viewBox="0 0 60 60" enable-background="new 0 0 60 60" xml:space="preserve">
<g display="none">
	<g display="inline">
		<g>
			<path fill="#F05540" d="M57.082,3.786h-9.766c-0.484,0-0.879,0.393-0.879,0.877c0,0.485,0.395,0.877,0.879,0.877h9.766
				c0.607,0,1.1,0.492,1.1,1.098v32.744H14.391V5.54h28.932c0.479,0,0.875-0.392,0.875-0.877c0-0.484-0.396-0.877-0.875-0.877H2.916
				c-1.571,0-2.85,1.279-2.85,2.852v37.739c0,2.102,1.708,3.809,3.809,3.809H15.84c0.485,0,0.876-0.391,0.876-0.879
				c0-0.48-0.391-0.873-0.876-0.873H3.875c-1.132,0-2.055-0.922-2.055-2.057v-3.238h56.362v3.238c0,1.135-0.924,2.057-2.055,2.057
				H19.838c-0.485,0-0.876,0.393-0.876,0.873c0,0.488,0.392,0.879,0.876,0.879h5.188c-0.037,0.114-0.077,0.227-0.118,0.334
				c-0.65,1.721-1.621,2.903-2.888,3.515c-0.758,0.364-1.229,1.11-1.229,1.937v0.105c0,1.186,0.959,2.139,2.138,2.139h6.712
				c0.485,0,0.876-0.393,0.876-0.874c0-0.487-0.393-0.879-0.876-0.879h-6.712c-0.212,0-0.386-0.171-0.386-0.386v-0.105
				c0-0.146,0.091-0.285,0.238-0.354c1.685-0.815,2.953-2.32,3.77-4.476c0.116-0.307,0.22-0.627,0.316-0.955h6.271
				c0.094,0.328,0.2,0.648,0.315,0.955c0.813,2.154,2.082,3.659,3.769,4.476c0.146,0.069,0.237,0.207,0.237,0.354v0.105
				c0,0.215-0.172,0.386-0.387,0.386h-3.438c-0.484,0-0.877,0.392-0.877,0.879c0,0.481,0.393,0.874,0.877,0.874h3.438
				c1.18,0,2.139-0.953,2.139-2.139v-0.105c0-0.826-0.469-1.572-1.228-1.937c-1.268-0.61-2.239-1.794-2.893-3.515
				c-0.039-0.107-0.08-0.22-0.117-0.334h21.152c2.1,0,3.807-1.707,3.807-3.809V6.638C59.934,5.065,58.656,3.786,57.082,3.786z
				 M12.636,39.382H1.82V6.638c0-0.605,0.492-1.098,1.096-1.098h9.72V39.382z"/>
		</g>
	</g>
	<g display="inline">
		<g>
			<path fill="#F05540" d="M54.193,9.899h-3.877c-0.883,0-1.603,0.718-1.603,1.603v23.833c0,0.481,0.396,0.879,0.877,0.879h5.326
				c0.483,0,0.879-0.396,0.879-0.879V11.502C55.797,10.617,55.076,9.899,54.193,9.899z M54.041,34.457h-3.572l0,0V14.76h3.572
				V34.457z M54.041,13.008h-3.572v-1.354h3.572V13.008z"/>
		</g>
	</g>
	<g display="inline">
		<g>
			<path fill="#F05540" d="M52.539,15.961h-0.566c-0.484,0-0.875,0.391-0.875,0.876s0.391,0.876,0.875,0.876h0.566
				c0.482,0,0.875-0.391,0.875-0.876S53.021,15.961,52.539,15.961z"/>
		</g>
	</g>
	<g display="inline">
		<g>
			<path fill="#F05540" d="M52.539,18.985h-0.566c-0.484,0-0.875,0.395-0.875,0.876c0,0.485,0.391,0.877,0.875,0.877h0.566
				c0.482,0,0.875-0.392,0.875-0.877C53.414,19.38,53.021,18.985,52.539,18.985z"/>
		</g>
	</g>
	<g display="inline">
		<g>
			<path fill="#F05540" d="M52.539,22.011h-0.566c-0.484,0-0.875,0.394-0.875,0.879c0,0.482,0.391,0.876,0.875,0.876h0.566
				c0.482,0,0.875-0.394,0.875-0.876C53.414,22.404,53.021,22.011,52.539,22.011z"/>
		</g>
	</g>
	<g display="inline">
		<g>
			<path fill="#F05540" d="M52.539,25.039h-0.566c-0.484,0-0.875,0.391-0.875,0.876c0,0.484,0.391,0.876,0.875,0.876h0.566
				c0.482,0,0.875-0.392,0.875-0.876C53.414,25.43,53.021,25.039,52.539,25.039z"/>
		</g>
	</g>
	<g display="inline">
		<g>
			<path fill="#F05540" d="M52.539,28.063h-0.566c-0.484,0-0.875,0.395-0.875,0.877c0,0.484,0.391,0.878,0.875,0.878h0.566
				c0.482,0,0.875-0.394,0.875-0.878C53.414,28.458,53.021,28.063,52.539,28.063z"/>
		</g>
	</g>
	<g display="inline">
		<g>
			<path fill="#F05540" d="M52.539,31.091h-0.566c-0.484,0-0.875,0.392-0.875,0.88c0,0.48,0.391,0.873,0.875,0.873h0.566
				c0.482,0,0.875-0.393,0.875-0.873C53.414,31.48,53.021,31.091,52.539,31.091z"/>
		</g>
	</g>
	<g display="inline">
		<g>
			<path fill="#F05540" d="M6.084,11.113H4.857c-0.484,0-0.876,0.394-0.876,0.879c0,0.482,0.393,0.876,0.876,0.876h1.227
				c0.484,0,0.876-0.394,0.876-0.876C6.96,11.507,6.568,11.113,6.084,11.113z"/>
		</g>
	</g>
	<g display="inline">
		<g>
			<path fill="#F05540" d="M9.6,14.214H4.857c-0.484,0-0.876,0.391-0.876,0.876c0,0.485,0.393,0.879,0.876,0.879H9.6
				c0.482,0,0.876-0.394,0.876-0.879C10.476,14.605,10.082,14.214,9.6,14.214z"/>
		</g>
	</g>
	<g display="inline">
		<g>
			<path fill="#F05540" d="M9.597,16.352h-4.74c-0.484,0-0.876,0.395-0.876,0.877c0,0.484,0.393,0.878,0.876,0.878H9.6
				c0.482,0,0.876-0.394,0.876-0.878C10.476,16.746,10.082,16.352,9.597,16.352z"/>
		</g>
	</g>
	<g display="inline">
		<g>
			<path fill="#F05540" d="M9.597,18.49h-4.74c-0.484,0-0.876,0.394-0.876,0.879c0,0.482,0.393,0.876,0.876,0.876H9.6
				c0.482,0,0.876-0.394,0.876-0.876C10.476,18.884,10.082,18.49,9.597,18.49z"/>
		</g>
	</g>
	<g display="inline">
		<g>
			<path fill="#F05540" d="M6.084,24.149H4.857c-0.484,0-0.876,0.394-0.876,0.879c0,0.482,0.393,0.876,0.876,0.876h1.227
				c0.484,0,0.876-0.394,0.876-0.876C6.96,24.543,6.568,24.149,6.084,24.149z"/>
		</g>
	</g>
	<g display="inline">
		<g>
			<path fill="#F05540" d="M9.597,27.249h-4.74c-0.484,0-0.876,0.392-0.876,0.876c0,0.485,0.393,0.879,0.876,0.879H9.6
				c0.482,0,0.876-0.394,0.876-0.879C10.476,27.641,10.082,27.249,9.597,27.249z"/>
		</g>
	</g>
	<g display="inline">
		<g>
			<path fill="#F05540" d="M9.597,29.388h-4.74c-0.484,0-0.876,0.391-0.876,0.878c0,0.481,0.393,0.875,0.876,0.875H9.6
				c0.482,0,0.876-0.394,0.876-0.875C10.476,29.778,10.082,29.388,9.597,29.388z"/>
		</g>
	</g>
	<g display="inline">
		<g>
			<path fill="#F05540" d="M9.597,31.523h-4.74c-0.484,0-0.876,0.394-0.876,0.879c0,0.483,0.393,0.881,0.876,0.881H9.6
				c0.482,0,0.876-0.396,0.876-0.881C10.476,31.917,10.082,31.523,9.597,31.523z"/>
		</g>
	</g>
	<g display="inline">
		<g>
			<path fill="#F05540" d="M45.414,21.885l-4.385-2.658c-0.002-0.002-0.002-0.002-0.004-0.005l-4.611-2.798H36.41l-4.361-2.647
				c-0.279-0.168-0.631-0.168-0.908,0l-4.363,2.647c-0.002,0-0.002,0-0.002,0.003l-4.609,2.795
				c-0.002,0.003-0.005,0.003-0.008,0.005l-4.384,2.658c-0.262,0.158-0.42,0.442-0.42,0.75c0,0.306,0.158,0.59,0.42,0.751
				l13.366,8.105c0.139,0.088,0.297,0.131,0.455,0.131c0.156,0,0.313-0.043,0.453-0.131l13.365-8.105
				c0.262-0.161,0.42-0.445,0.42-0.751C45.834,22.327,45.676,22.043,45.414,21.885z M38.893,19.979l-2.682,1.63l-2.924-1.774
				l2.682-1.626L38.893,19.979z M34.52,22.635l-2.924,1.771l-2.924-1.771l2.924-1.773L34.52,22.635z M31.596,15.553l2.684,1.63
				l-2.684,1.626l-2.685-1.626L31.596,15.553z M27.22,18.209l2.682,1.626l-2.92,1.774l-2.685-1.63L27.22,18.209z M19.921,22.635
				l2.685-1.629l2.682,1.629l-2.682,1.627L19.921,22.635z M24.297,25.288l2.685-1.627l2.92,1.771l-2.682,1.629L24.297,25.288z
				 M31.596,29.717l-2.685-1.629l2.685-1.629l2.684,1.629L31.596,29.717z M35.969,27.062l-2.682-1.629l2.92-1.771l2.686,1.627
				L35.969,27.062z M40.586,24.262L37.9,22.635l2.686-1.629l2.682,1.629L40.586,24.262z"/>
		</g>
	</g>
	<g display="inline">
		<g>
			<path fill="#F05540" d="M38.684,29.64h-0.791c-0.481,0-0.877,0.39-0.877,0.877c0,0.482,0.396,0.879,0.877,0.879h0.791
				c0.484,0,0.877-0.396,0.877-0.879C39.561,30.029,39.168,29.64,38.684,29.64z"/>
		</g>
	</g>
	<g display="inline">
		<g>
			<path fill="#F05540" d="M42.863,31.889h-4.971c-0.482,0-0.877,0.396-0.877,0.881c0,0.481,0.395,0.873,0.877,0.873h4.971
				c0.482,0,0.877-0.392,0.877-0.873C43.74,32.285,43.346,31.889,42.863,31.889z"/>
		</g>
	</g>
</g>
<g display="none">
	<path display="inline" fill="#F05540" d="M30,0C13.458,0,0,13.458,0,30c0,16.543,13.458,30,30,30c16.543,0,30-13.457,30-30
		C60,13.458,46.543,0,30,0z M30,58C14.561,58,2,45.439,2,30C2,14.561,14.561,2,30,2c15.439,0,28,12.561,28,28
		C58,45.439,45.439,58,30,58z"/>
	<path display="inline" fill="#F05540" d="M31,26.021V15.879c0-0.553-0.447-1-1-1c-0.552,0-1,0.447-1,1v10.143
		c-1.398,0.363-2.494,1.459-2.857,2.857H19c-0.552,0-1,0.447-1,1c0,0.553,0.448,1,1,1h7.143c0.446,1.721,2,3,3.857,3
		c2.207,0,4-1.793,4-4C34,28.02,32.721,26.468,31,26.021z M30,31.879c-1.104,0-2-0.896-2-2c0-1.104,0.896-2,2-2c1.104,0,2,0.896,2,2
		C32,30.982,31.104,31.879,30,31.879z"/>
	<path display="inline" fill="#F05540" d="M30,9.879c0.553,0,1-0.447,1-1v-1c0-0.553-0.447-1-1-1c-0.552,0-1,0.447-1,1v1
		C29,9.432,29.448,9.879,30,9.879z"/>
	<path display="inline" fill="#F05540" d="M30,49.879c-0.552,0-1,0.447-1,1v1c0,0.553,0.448,1,1,1c0.553,0,1-0.447,1-1v-1
		C31,50.326,30.553,49.879,30,49.879z"/>
	<path display="inline" fill="#F05540" d="M52,28.879h-1c-0.551,0-1,0.447-1,1c0,0.553,0.449,1,1,1h1c0.553,0,1-0.447,1-1
		C53,29.326,52.553,28.879,52,28.879z"/>
	<path display="inline" fill="#F05540" d="M9,28.879H8c-0.552,0-1,0.447-1,1c0,0.553,0.448,1,1,1h1c0.552,0,1-0.447,1-1
		C10,29.326,9.552,28.879,9,28.879z"/>
	<path display="inline" fill="#F05540" d="M44.85,13.615l-0.707,0.707c-0.391,0.391-0.391,1.023,0,1.414
		c0.195,0.195,0.451,0.293,0.707,0.293s0.512-0.098,0.707-0.293l0.707-0.707c0.391-0.391,0.391-1.023,0-1.414
		C45.873,13.224,45.24,13.225,44.85,13.615z"/>
	<path display="inline" fill="#F05540" d="M14.443,44.021l-0.707,0.707c-0.391,0.391-0.391,1.022,0,1.414
		c0.195,0.194,0.451,0.293,0.707,0.293c0.257,0,0.513-0.099,0.707-0.293l0.707-0.707c0.392-0.392,0.392-1.023,0-1.414
		C15.467,43.631,14.834,43.631,14.443,44.021z"/>
	<path display="inline" fill="#F05540" d="M45.557,44.021c-0.391-0.392-1.022-0.392-1.414,0c-0.391,0.391-0.391,1.022,0,1.414
		l0.707,0.707c0.195,0.194,0.451,0.293,0.707,0.293s0.512-0.099,0.707-0.293c0.391-0.392,0.391-1.023,0-1.414L45.557,44.021z"/>
	<path display="inline" fill="#F05540" d="M15.15,13.615c-0.391-0.391-1.022-0.391-1.414,0c-0.391,0.391-0.391,1.023,0,1.414
		l0.707,0.707c0.195,0.195,0.451,0.293,0.707,0.293c0.257,0,0.513-0.098,0.707-0.293c0.392-0.391,0.392-1.023,0-1.414L15.15,13.615z
		"/>
</g>
<g display="none">
	<path display="inline" fill="#F05540" d="M28.23,3.809c-7.505,0-14.561,2.923-19.868,8.229C3.057,17.345,0.134,24.4,0.134,31.904
		c0,7.506,2.922,14.561,8.229,19.867C13.67,57.078,20.725,60,28.23,60c0.676,0,1.225-0.549,1.225-1.225V5.034
		C29.455,4.357,28.906,3.809,28.23,3.809z M27.006,57.521C13.431,56.881,2.583,45.635,2.583,31.904
		c0-13.731,10.848-24.975,24.423-25.617V57.521z"/>
	<path display="inline" fill="#F05540" d="M35.084,25.738c0.211,0.154,0.464,0.234,0.719,0.234c0.127,0,0.256-0.02,0.379-0.061
		l22.373-7.27c0.309-0.1,0.564-0.318,0.713-0.608c0.146-0.289,0.174-0.625,0.072-0.935C55.963,6.712,46.725,0,35.803,0
		c-0.676,0-1.225,0.548-1.225,1.225v23.523C34.578,25.141,34.766,25.508,35.084,25.738z M37.027,2.48
		c8.896,0.458,16.389,5.901,19.576,14.222l-19.576,6.36V2.48L37.027,2.48z"/>
	<path display="inline" fill="#F05540" d="M58.617,26.409c-0.209-0.644-0.9-0.995-1.543-0.786L34.248,33.04
		c-0.504,0.164-0.846,0.634-0.846,1.165v24c0,0.676,0.549,1.225,1.225,1.225c12.439,0,19.418-7.771,22.477-13.772
		C60.164,39.652,60.701,32.816,58.617,26.409z M54.922,44.544c-2.762,5.421-8.936,11.604-19.07,12.409V35.094l20.785-6.753
		C58.094,33.779,57.498,39.488,54.922,44.544z"/>
</g>
<g display="none">
	<path display="inline" fill="#F05540" d="M29.998,60C13.457,60,0,46.543,0,30C0,13.459,13.457,0,29.998,0C46.541,0,60,13.457,60,30
		C59.998,46.543,46.541,60,29.998,60z M29.998,2.312C14.73,2.312,2.31,14.732,2.31,30c0,15.27,12.42,27.691,27.688,27.691
		c15.27,0,27.691-12.422,27.691-27.691C57.688,14.732,45.268,2.312,29.998,2.312z M42.189,45.447
		c2.865-1.074,5.215-3.162,6.617-5.879c0.438-0.851,0.104-1.896-0.746-2.336c-0.851-0.438-1.896-0.105-2.336,0.746
		c-1.007,1.951-2.695,3.451-4.754,4.225c-2.064,0.777-4.33,0.756-6.379-0.057c-0.888-0.354-1.896,0.082-2.249,0.972
		c-0.354,0.89,0.082,1.897,0.974,2.249c1.459,0.578,2.998,0.869,4.537,0.869C39.322,46.236,40.79,45.975,42.189,45.447z
		 M42.71,17.879c-4.392,0-8.505,1.811-12.386,1.629c-0.1-0.007-0.209-0.009-0.324-0.008c-0.116-0.001-0.224,0.001-0.326,0.008
		c-3.877,0.182-7.993-1.629-12.383-1.629c-4.41,0-8.898,1.431-8.898,1.431v2.188c0,0,1.113,0.919,1.391,1.656
		c0.277,0.735,1.537,5.817,2.383,6.778c0.846,0.96,1.432,2.921,6.871,2.869c7.747-0.186,9.252-8.201,9.533-9.262
		c0.17-0.719,0.924-0.683,1.43-0.694c0.507,0.012,1.261-0.024,1.429,0.694c0.282,1.061,1.788,9.076,9.532,9.262
		c5.44,0.053,6.029-1.908,6.871-2.869c0.844-0.961,2.104-6.043,2.384-6.778c0.276-0.737,1.391-1.656,1.391-1.656V19.31
		C51.607,19.309,47.117,17.879,42.71,17.879z"/>
</g>
<g display="none">
	<g display="inline">
		<g>
			<path fill="#F05540" d="M31.25,10.063V1.25C31.25,0.559,30.691,0,30,0c-0.691,0-1.25,0.559-1.25,1.25v8.813
				C15.547,10.721,5,21.637,5,35c0,13.785,11.215,25,25,25s25-11.215,25-25C55,21.637,44.453,10.721,31.25,10.063z M21.645,14.127
				c-1.672,1.84-3.098,4.229-4.195,7.022c-1.479-0.352-2.848-0.769-4.086-1.243C15.637,17.401,18.456,15.408,21.645,14.127z
				 M11.724,21.928c1.468,0.613,3.109,1.15,4.911,1.59c-0.873,2.869-1.421,6.07-1.576,9.488c-3.329-1.04-5.663-2.376-6.792-3.734
				C8.974,26.596,10.152,24.117,11.724,21.928z M7.5,35c0-0.963,0.081-1.904,0.199-2.836c1.74,1.382,4.249,2.551,7.319,3.438
				c0.051,3.699,0.563,7.168,1.444,10.273c-3.48-0.919-6.223-2.18-7.752-3.656C7.938,39.949,7.5,37.527,7.5,35z M10.679,46.471
				c1.871,0.896,4.154,1.631,6.707,2.204c1.106,2.868,2.553,5.321,4.259,7.198C17.039,54.023,13.195,50.691,10.679,46.471z
				 M28.75,57.387c-3.383-0.607-6.373-3.656-8.418-8.146c2.619,0.419,5.449,0.669,8.418,0.725V57.387z M28.75,47.464
				c-3.354-0.069-6.578-0.397-9.471-0.954c-1.011-3.037-1.631-6.529-1.744-10.27c3.325,0.732,7.136,1.166,11.215,1.24V47.464
				L28.75,47.464z M28.75,34.979c-4.297-0.08-8.076-0.564-11.213-1.304c0.113-3.48,0.658-6.751,1.555-9.632
				c2.977,0.552,6.254,0.866,9.658,0.93V34.979L28.75,34.979z M28.75,22.475c-3.102-0.061-6.083-0.33-8.795-0.809
				c2.045-4.979,5.192-8.404,8.795-9.052V22.475L28.75,22.475z M46.637,19.905c-1.238,0.476-2.607,0.892-4.086,1.243
				c-1.098-2.794-2.523-5.182-4.195-7.021C41.544,15.408,44.361,17.4,46.637,19.905z M31.25,12.613
				c3.604,0.648,6.75,4.074,8.795,9.053c-2.712,0.479-5.693,0.748-8.795,0.809V12.613z M31.25,24.974
				c3.404-0.063,6.682-0.378,9.658-0.931c0.894,2.873,1.438,6.134,1.554,9.604c-3.153,0.75-6.94,1.25-11.212,1.332V24.974z
				 M31.25,37.48c4.08-0.074,7.891-0.508,11.215-1.24c-0.113,3.74-0.732,7.232-1.744,10.27c-2.893,0.557-6.117,0.885-9.471,0.954
				V37.48L31.25,37.48z M31.25,57.387v-7.423c2.969-0.056,5.799-0.306,8.419-0.725C37.623,53.73,34.633,56.777,31.25,57.387z
				 M38.355,55.873c1.705-1.877,3.151-4.33,4.26-7.199c2.553-0.574,4.836-1.309,6.707-2.203
				C46.807,50.691,42.961,54.023,38.355,55.873z M52.5,35c0,2.527-0.438,4.951-1.211,7.221c-1.529,1.478-4.271,2.736-7.75,3.654
				c0.881-3.105,1.393-6.573,1.443-10.273c3.069-0.887,5.578-2.056,7.317-3.438C52.419,33.096,52.5,34.037,52.5,35z M51.732,29.271
				c-1.115,1.327-3.465,2.654-6.793,3.7c-0.156-3.405-0.705-6.595-1.574-9.455c1.802-0.438,3.443-0.976,4.91-1.591
				C49.848,24.116,51.025,26.596,51.732,29.271z"/>
			<path fill="#F05540" d="M45.917,7.455c1.239,0.343,1.285,0.388,1.628,1.628C47.695,9.625,48.188,10,48.75,10
				s1.055-0.375,1.205-0.917c0.343-1.24,0.389-1.286,1.628-1.628C52.125,7.305,52.5,6.813,52.5,6.25s-0.375-1.055-0.917-1.205
				c-1.239-0.343-1.285-0.388-1.628-1.628c-0.301-1.084-2.109-1.084-2.41,0c-0.343,1.24-0.389,1.285-1.629,1.628
				C45.375,5.195,45,5.687,45,6.25S45.375,7.305,45.917,7.455z"/>
			<path fill="#F05540" d="M6.583,55.045c-1.24-0.343-1.285-0.389-1.628-1.628c-0.3-1.084-2.109-1.084-2.41,0
				c-0.343,1.239-0.388,1.285-1.628,1.628C0.375,55.195,0,55.688,0,56.25s0.375,1.055,0.917,1.205
				c1.24,0.343,1.285,0.389,1.628,1.628C2.695,59.625,3.188,60,3.75,60s1.055-0.375,1.205-0.917
				c0.343-1.239,0.389-1.285,1.628-1.628C7.125,57.305,7.5,56.813,7.5,56.25S7.125,55.195,6.583,55.045z"/>
			<path fill="#F05540" d="M59.083,13.795c-0.169-0.046-0.271-0.082-0.28-0.072c-0.02-0.047-0.052-0.138-0.098-0.306
				c-0.301-1.084-2.109-1.084-2.41,0c-0.047,0.169-0.078,0.259-0.072,0.28c-0.047,0.02-0.138,0.052-0.307,0.098
				C55.375,13.945,55,14.438,55,15s0.375,1.055,0.916,1.205c0.17,0.046,0.264,0.063,0.281,0.072c0.02,0.047,0.052,0.138,0.098,0.306
				c0.15,0.542,0.645,0.917,1.205,0.917s1.055-0.375,1.205-0.917c0.046-0.169,0.078-0.259,0.072-0.28
				c0.047-0.02,0.137-0.052,0.306-0.098C59.625,16.055,60,15.562,60,15S59.625,13.945,59.083,13.795z"/>
		</g>
	</g>
</g>
<g display="none">
	<g display="inline">
		<g>
			<path fill="#F05540" d="M58,0H2C0.896,0.001,0.001,0.896,0,2v56c0.001,1.104,0.896,1.999,2,2h56c1.104-0.001,1.999-0.896,2-2V2
				C59.999,0.896,59.104,0.001,58,0z M2,2h56v4H2V2z M2,58V8h56l0.002,50H2L2,58z"/>
			<path fill="#F05540" d="M11,3H5C4.448,3,4,3.448,4,4s0.448,1,1,1h6c0.552,0,1-0.448,1-1S11.552,3,11,3z"/>
			<path fill="#F05540" d="M17,3h-2c-0.553,0-1,0.448-1,1s0.447,1,1,1h2c0.553,0,1-0.448,1-1S17.553,3,17,3z"/>
			<path fill="#F05540" d="M23,3h-2c-0.553,0-1,0.448-1,1s0.447,1,1,1h2c0.553,0,1-0.448,1-1S23.553,3,23,3z"/>
			<path fill="#F05540" d="M29,3h-2c-0.553,0-1,0.448-1,1s0.447,1,1,1h2c0.553,0,1-0.448,1-1S29.553,3,29,3z"/>
			<path fill="#F05540" d="M35,3h-2c-0.553,0-1,0.448-1,1s0.447,1,1,1h2c0.553,0,1-0.448,1-1S35.553,3,35,3z"/>
			<path fill="#F05540" d="M56,3h-1c-0.553,0-1,0.448-1,1s0.447,1,1,1h1c0.553,0,1-0.448,1-1S56.553,3,56,3z"/>
			<path fill="#F05540" d="M53,39h-3v-6c-0.002-1.656-1.344-2.998-3-3H31v-5h3c1.656-0.002,2.998-1.344,3-3v-6
				c-0.002-1.656-1.344-2.998-3-3h-8c-1.656,0.002-2.998,1.344-3,3v6c0.002,1.656,1.344,2.998,3,3h3v5H13
				c-1.656,0.002-2.998,1.344-3,3v6H7c-1.656,0.002-2.998,1.344-3,3v6c0.002,1.656,1.344,2.998,3,3h8c1.656-0.002,2.998-1.344,3-3
				v-6c-0.002-1.656-1.344-2.998-3-3h-3v-6c0-0.552,0.448-0.999,1-1h16v7h-3c-1.656,0.002-2.998,1.344-3,3v6
				c0.002,1.656,1.344,2.998,3,3h8c1.656-0.002,2.998-1.344,3-3v-6c-0.002-1.656-1.344-2.998-3-3h-3v-7h16
				c0.552,0.001,0.999,0.448,1,1v6h-3c-1.656,0.002-2.998,1.344-3,3v6c0.002,1.656,1.344,2.998,3,3h8c1.656-0.002,2.998-1.344,3-3
				v-6C55.998,40.344,54.656,39.002,53,39z M15,41c0.552,0.001,0.999,0.448,1,1v6c-0.001,0.552-0.448,0.999-1,1H7
				c-0.552-0.001-1-0.448-1-1v-6c0-0.552,0.448-0.999,1-1h3v3c0,0.553,0.448,1,1,1s1-0.447,1-1v-3H15z M34,41
				c0.552,0.001,0.999,0.448,1,1v6c-0.001,0.552-0.448,0.999-1,1h-8c-0.553-0.001-1-0.448-1-1v-6c0-0.552,0.447-0.999,1-1h3v3
				c0,0.553,0.447,1,1,1c0.553,0,1-0.447,1-1v-3H34z M30,19c-0.553,0-1,0.447-1,1v3h-3c-0.552-0.001-0.999-0.448-1-1v-6
				c0.001-0.552,0.448-1,1-1h8c0.553,0,1,0.448,1,1v6c0,0.552-0.447,0.999-1,1h-3v-3C31,19.447,30.553,19,30,19z M54,48
				c0,0.552-0.448,0.999-1,1h-8c-0.552-0.001-0.999-0.448-1-1v-6c0.001-0.552,0.448-0.999,1-1h3v3c0,0.553,0.447,1,1,1s1-0.447,1-1
				v-3h3c0.552,0.001,0.999,0.448,1,1V48L54,48z"/>
		</g>
	</g>
</g>
<g>
	<g>
		<g>
			<polygon fill="#F1543F" points="40.884,16.616 39.116,18.384 46.982,26.25 39.116,34.116 40.884,35.884 50.518,26.25 			"/>
		</g>
	</g>
	<g>
		<g>
			<polygon fill="#F1543F" points="20.884,18.384 19.116,16.616 9.482,26.25 19.116,35.884 20.884,34.116 13.018,26.25 			"/>
		</g>
	</g>
	<g>
		<g>
			
				<rect x="16.537" y="24.999" transform="matrix(-0.3711 0.9286 -0.9286 -0.3711 65.5091 8.1316)" fill="#F1543F" width="26.927" height="2.5"/>
		</g>
	</g>
	<g>
		<g>
			<path fill="#F1543F" d="M57.5,43.75V6.25h-55v37.5H0v5.379l3.081,4.621h53.838L60,49.129V43.75H57.5z M5,8.75h50v35H5V8.75z
				 M57.5,48.371l-1.919,2.879H4.419L2.5,48.371V46.25h55V48.371z"/>
		</g>
	</g>
	<g>
		<g>
			<rect x="23.75" y="47.5" fill="#F1543F" width="2.5" height="2.5"/>
		</g>
	</g>
	<g>
		<g>
			<rect x="28.75" y="47.5" fill="#F1543F" width="2.5" height="2.5"/>
		</g>
	</g>
	<g>
		<g>
			<rect x="33.75" y="47.5" fill="#F1543F" width="2.5" height="2.5"/>
		</g>
	</g>
</g>
</svg>
