<?xml version="1.0" encoding="utf-8"?>
<!-- Generator: Adobe Illustrator 15.0.0, SVG Export Plug-In . SVG Version: 6.00 Build 0)  -->
<!DOCTYPE svg PUBLIC "-//W3C//DTD SVG 1.1//EN" "http://www.w3.org/Graphics/SVG/1.1/DTD/svg11.dtd">
<svg version="1.1" id="Layer_1" xmlns="http://www.w3.org/2000/svg" xmlns:xlink="http://www.w3.org/1999/xlink" x="0px" y="0px"
	 width="60px" height="60px" viewBox="0 0 60 60" enable-background="new 0 0 60 60" xml:space="preserve">
<g display="none">
	<g display="inline">
		<g>
			<path fill="#0071bc" d="M57.082,3.786h-9.766c-0.484,0-0.879,0.393-0.879,0.877c0,0.485,0.395,0.877,0.879,0.877h9.766
				c0.607,0,1.1,0.492,1.1,1.098v32.744H14.391V5.54h28.932c0.48,0,0.875-0.392,0.875-0.877c0-0.484-0.395-0.877-0.875-0.877H2.916
				c-1.571,0-2.85,1.279-2.85,2.852v37.739c0,2.101,1.708,3.809,3.809,3.809H15.84c0.485,0,0.876-0.391,0.876-0.879
				c0-0.481-0.391-0.874-0.876-0.874H3.875c-1.132,0-2.055-0.921-2.055-2.056v-3.238h56.362v3.238c0,1.135-0.924,2.056-2.055,2.056
				H19.838c-0.485,0-0.876,0.393-0.876,0.874c0,0.488,0.392,0.879,0.876,0.879h5.188c-0.037,0.114-0.077,0.226-0.118,0.333
				c-0.65,1.721-1.621,2.904-2.888,3.515c-0.758,0.364-1.229,1.11-1.229,1.936v0.106c0,1.186,0.959,2.139,2.138,2.139h6.712
				c0.485,0,0.876-0.393,0.876-0.874c0-0.488-0.392-0.879-0.876-0.879h-6.712c-0.212,0-0.386-0.171-0.386-0.386v-0.106
				c0-0.146,0.091-0.284,0.238-0.354c1.685-0.815,2.953-2.32,3.77-4.476c0.116-0.306,0.22-0.627,0.316-0.954h6.271
				c0.094,0.327,0.201,0.648,0.316,0.954c0.814,2.155,2.082,3.66,3.768,4.476c0.146,0.069,0.238,0.207,0.238,0.354v0.106
				c0,0.215-0.172,0.386-0.387,0.386h-3.438c-0.484,0-0.877,0.391-0.877,0.879c0,0.481,0.393,0.874,0.877,0.874h3.438
				c1.18,0,2.139-0.953,2.139-2.139v-0.106c0-0.825-0.469-1.571-1.227-1.936c-1.268-0.61-2.24-1.794-2.893-3.515
				c-0.039-0.107-0.08-0.219-0.117-0.333h21.152c2.1,0,3.807-1.708,3.807-3.809V6.638C59.934,5.065,58.656,3.786,57.082,3.786z
				 M12.636,39.382H1.82V6.638c0-0.605,0.492-1.098,1.096-1.098h9.72V39.382z"/>
		</g>
	</g>
	<g display="inline">
		<g>
			<path fill="#0071bc" d="M54.193,9.899h-3.877c-0.883,0-1.602,0.718-1.602,1.603v23.833c0,0.482,0.395,0.879,0.877,0.879h5.326
				c0.484,0,0.879-0.396,0.879-0.879V11.502C55.797,10.617,55.076,9.899,54.193,9.899z M54.041,34.457h-3.572l0,0V14.76h3.572
				V34.457z M54.041,13.008h-3.572v-1.354h3.572V13.008z"/>
		</g>
	</g>
	<g display="inline">
		<g>
			<path fill="#0071bc" d="M52.539,15.961h-0.566c-0.484,0-0.875,0.391-0.875,0.876s0.391,0.876,0.875,0.876h0.566
				c0.482,0,0.875-0.391,0.875-0.876S53.021,15.961,52.539,15.961z"/>
		</g>
	</g>
	<g display="inline">
		<g>
			<path fill="#0071bc" d="M52.539,18.985h-0.566c-0.484,0-0.875,0.395-0.875,0.876c0,0.485,0.391,0.877,0.875,0.877h0.566
				c0.482,0,0.875-0.392,0.875-0.877C53.414,19.38,53.021,18.985,52.539,18.985z"/>
		</g>
	</g>
	<g display="inline">
		<g>
			<path fill="#0071bc" d="M52.539,22.011h-0.566c-0.484,0-0.875,0.394-0.875,0.879c0,0.482,0.391,0.876,0.875,0.876h0.566
				c0.482,0,0.875-0.394,0.875-0.876C53.414,22.404,53.021,22.011,52.539,22.011z"/>
		</g>
	</g>
	<g display="inline">
		<g>
			<path fill="#0071bc" d="M52.539,25.039h-0.566c-0.484,0-0.875,0.391-0.875,0.876c0,0.484,0.391,0.876,0.875,0.876h0.566
				c0.482,0,0.875-0.392,0.875-0.876C53.414,25.43,53.021,25.039,52.539,25.039z"/>
		</g>
	</g>
	<g display="inline">
		<g>
			<path fill="#0071bc" d="M52.539,28.063h-0.566c-0.484,0-0.875,0.395-0.875,0.877c0,0.484,0.391,0.878,0.875,0.878h0.566
				c0.482,0,0.875-0.394,0.875-0.878C53.414,28.458,53.021,28.063,52.539,28.063z"/>
		</g>
	</g>
	<g display="inline">
		<g>
			<path fill="#0071bc" d="M52.539,31.091h-0.566c-0.484,0-0.875,0.391-0.875,0.879c0,0.481,0.391,0.874,0.875,0.874h0.566
				c0.482,0,0.875-0.393,0.875-0.874C53.414,31.481,53.021,31.091,52.539,31.091z"/>
		</g>
	</g>
	<g display="inline">
		<g>
			<path fill="#0071bc" d="M6.084,11.113H4.857c-0.484,0-0.876,0.394-0.876,0.879c0,0.482,0.393,0.876,0.876,0.876h1.227
				c0.484,0,0.876-0.394,0.876-0.876C6.96,11.507,6.568,11.113,6.084,11.113z"/>
		</g>
	</g>
	<g display="inline">
		<g>
			<path fill="#0071bc" d="M9.6,14.214H4.857c-0.484,0-0.876,0.391-0.876,0.876s0.393,0.879,0.876,0.879H9.6
				c0.482,0,0.876-0.394,0.876-0.879S10.082,14.214,9.6,14.214z"/>
		</g>
	</g>
	<g display="inline">
		<g>
			<path fill="#0071bc" d="M9.597,16.352h-4.74c-0.484,0-0.876,0.395-0.876,0.877c0,0.484,0.393,0.878,0.876,0.878H9.6
				c0.482,0,0.876-0.394,0.876-0.878C10.476,16.746,10.082,16.352,9.597,16.352z"/>
		</g>
	</g>
	<g display="inline">
		<g>
			<path fill="#0071bc" d="M9.597,18.49h-4.74c-0.484,0-0.876,0.394-0.876,0.879c0,0.482,0.393,0.876,0.876,0.876H9.6
				c0.482,0,0.876-0.394,0.876-0.876C10.476,18.884,10.082,18.49,9.597,18.49z"/>
		</g>
	</g>
	<g display="inline">
		<g>
			<path fill="#0071bc" d="M6.084,24.149H4.857c-0.484,0-0.876,0.394-0.876,0.879c0,0.482,0.393,0.876,0.876,0.876h1.227
				c0.484,0,0.876-0.394,0.876-0.876C6.96,24.543,6.568,24.149,6.084,24.149z"/>
		</g>
	</g>
	<g display="inline">
		<g>
			<path fill="#0071bc" d="M9.597,27.249h-4.74c-0.484,0-0.876,0.392-0.876,0.876c0,0.485,0.393,0.879,0.876,0.879H9.6
				c0.482,0,0.876-0.394,0.876-0.879C10.476,27.641,10.082,27.249,9.597,27.249z"/>
		</g>
	</g>
	<g display="inline">
		<g>
			<path fill="#0071bc" d="M9.597,29.388h-4.74c-0.484,0-0.876,0.391-0.876,0.878c0,0.481,0.393,0.874,0.876,0.874H9.6
				c0.482,0,0.876-0.393,0.876-0.874C10.476,29.778,10.082,29.388,9.597,29.388z"/>
		</g>
	</g>
	<g display="inline">
		<g>
			<path fill="#0071bc" d="M9.597,31.524h-4.74c-0.484,0-0.876,0.393-0.876,0.878c0,0.484,0.393,0.881,0.876,0.881H9.6
				c0.482,0,0.876-0.396,0.876-0.881C10.476,31.917,10.082,31.524,9.597,31.524z"/>
		</g>
	</g>
	<g display="inline">
		<g>
			<path fill="#0071bc" d="M45.414,21.885l-4.385-2.658c-0.002-0.002-0.002-0.002-0.004-0.005l-4.611-2.798H36.41l-4.361-2.647
				c-0.279-0.168-0.631-0.168-0.908,0l-4.363,2.647c-0.002,0-0.002,0-0.002,0.003l-4.609,2.795
				c-0.002,0.003-0.005,0.003-0.008,0.005l-4.384,2.658c-0.262,0.158-0.42,0.442-0.42,0.75c0,0.306,0.158,0.59,0.42,0.751
				l13.366,8.105c0.139,0.088,0.297,0.131,0.455,0.131c0.156,0,0.313-0.043,0.453-0.131l13.365-8.105
				c0.262-0.161,0.42-0.445,0.42-0.751C45.834,22.327,45.676,22.043,45.414,21.885z M38.893,19.979l-2.682,1.63l-2.924-1.774
				l2.682-1.626L38.893,19.979z M34.52,22.635l-2.924,1.771l-2.924-1.771l2.924-1.773L34.52,22.635z M31.596,15.553l2.684,1.63
				l-2.684,1.626l-2.685-1.626L31.596,15.553z M27.22,18.209l2.682,1.626l-2.92,1.774l-2.685-1.63L27.22,18.209z M19.921,22.635
				l2.685-1.629l2.682,1.629l-2.682,1.627L19.921,22.635z M24.297,25.288l2.685-1.627l2.92,1.771l-2.682,1.629L24.297,25.288z
				 M31.596,29.717l-2.685-1.629l2.685-1.629l2.684,1.629L31.596,29.717z M35.969,27.062l-2.682-1.629l2.92-1.771l2.686,1.627
				L35.969,27.062z M40.586,24.262L37.9,22.635l2.686-1.629l2.682,1.629L40.586,24.262z"/>
		</g>
	</g>
	<g display="inline">
		<g>
			<path fill="#0071bc" d="M38.684,29.64h-0.791c-0.482,0-0.877,0.39-0.877,0.878c0,0.482,0.395,0.879,0.877,0.879h0.791
				c0.484,0,0.877-0.396,0.877-0.879C39.561,30.029,39.168,29.64,38.684,29.64z"/>
		</g>
	</g>
	<g display="inline">
		<g>
			<path fill="#0071bc" d="M42.863,31.889h-4.971c-0.482,0-0.877,0.396-0.877,0.88c0,0.482,0.395,0.873,0.877,0.873h4.971
				c0.482,0,0.877-0.391,0.877-0.873C43.74,32.285,43.346,31.889,42.863,31.889z"/>
		</g>
	</g>
</g>
<g display="none">
	<path display="inline" fill="#0071bc" d="M30,0C13.458,0,0,13.458,0,30c0,16.543,13.458,30,30,30c16.543,0,30-13.457,30-30
		C60,13.458,46.543,0,30,0z M30,58C14.561,58,2,45.439,2,30S14.561,2,30,2s28,12.561,28,28S45.439,58,30,58z"/>
	<path display="inline" fill="#0071bc" d="M31,26.021V15.879c0-0.553-0.447-1-1-1c-0.552,0-1,0.447-1,1v10.143
		c-1.398,0.363-2.494,1.459-2.857,2.857H19c-0.552,0-1,0.447-1,1s0.448,1,1,1h7.143c0.446,1.721,2,3,3.857,3c2.207,0,4-1.793,4-4
		C34,28.02,32.721,26.468,31,26.021z M30,31.879c-1.104,0-2-0.896-2-2s0.896-2,2-2s2,0.896,2,2S31.104,31.879,30,31.879z"/>
	<path display="inline" fill="#0071bc" d="M30,9.879c0.553,0,1-0.447,1-1v-1c0-0.553-0.447-1-1-1c-0.552,0-1,0.447-1,1v1
		C29,9.432,29.448,9.879,30,9.879z"/>
	<path display="inline" fill="#0071bc" d="M30,49.879c-0.552,0-1,0.447-1,1v1c0,0.553,0.448,1,1,1c0.553,0,1-0.447,1-1v-1
		C31,50.326,30.553,49.879,30,49.879z"/>
	<path display="inline" fill="#0071bc" d="M52,28.879h-1c-0.551,0-1,0.447-1,1s0.449,1,1,1h1c0.553,0,1-0.447,1-1
		S52.553,28.879,52,28.879z"/>
	<path display="inline" fill="#0071bc" d="M9,28.879H8c-0.552,0-1,0.447-1,1s0.448,1,1,1h1c0.552,0,1-0.447,1-1
		S9.552,28.879,9,28.879z"/>
	<path display="inline" fill="#0071bc" d="M44.85,13.615l-0.707,0.707c-0.391,0.391-0.391,1.023,0,1.414
		c0.195,0.195,0.451,0.293,0.707,0.293s0.512-0.098,0.707-0.293l0.707-0.707c0.391-0.391,0.391-1.023,0-1.414
		S45.24,13.225,44.85,13.615z"/>
	<path display="inline" fill="#0071bc" d="M14.443,44.021l-0.707,0.707c-0.391,0.391-0.391,1.023,0,1.414
		c0.195,0.195,0.451,0.293,0.707,0.293c0.257,0,0.513-0.098,0.707-0.293l0.707-0.707c0.392-0.391,0.392-1.023,0-1.414
		C15.467,43.631,14.834,43.631,14.443,44.021z"/>
	<path display="inline" fill="#0071bc" d="M45.557,44.021c-0.391-0.391-1.023-0.391-1.414,0s-0.391,1.023,0,1.414l0.707,0.707
		c0.195,0.195,0.451,0.293,0.707,0.293s0.512-0.098,0.707-0.293c0.391-0.391,0.391-1.023,0-1.414L45.557,44.021z"/>
	<path display="inline" fill="#0071bc" d="M15.15,13.615c-0.391-0.391-1.022-0.391-1.414,0c-0.391,0.391-0.391,1.023,0,1.414
		l0.707,0.707c0.195,0.195,0.451,0.293,0.707,0.293c0.257,0,0.513-0.098,0.707-0.293c0.392-0.391,0.392-1.023,0-1.414L15.15,13.615z
		"/>
</g>
<g display="none">
	<path display="inline" fill="#0071bc" d="M28.23,3.809c-7.505,0-14.561,2.923-19.868,8.229C3.057,17.345,0.134,24.4,0.134,31.904
		c0,7.506,2.922,14.561,8.229,19.867C13.67,57.078,20.725,60,28.23,60c0.676,0,1.225-0.549,1.225-1.225V5.034
		C29.455,4.357,28.906,3.809,28.23,3.809z M27.006,57.521C13.431,56.881,2.583,45.635,2.583,31.904S13.431,6.929,27.006,6.287
		V57.521z"/>
	<path display="inline" fill="#0071bc" d="M35.084,25.738c0.211,0.154,0.464,0.234,0.719,0.234c0.127,0,0.255-0.02,0.379-0.061
		l22.373-7.27c0.309-0.1,0.564-0.318,0.713-0.608c0.146-0.289,0.174-0.625,0.072-0.935C55.963,6.712,46.725,0,35.803,0
		c-0.676,0-1.225,0.548-1.225,1.225v23.523C34.578,25.141,34.766,25.508,35.084,25.738z M37.027,2.48
		c8.897,0.458,16.389,5.901,19.576,14.222l-19.576,6.36V2.48L37.027,2.48z"/>
	<path display="inline" fill="#0071bc" d="M58.617,26.409c-0.209-0.644-0.9-0.995-1.543-0.786L34.248,33.04
		c-0.504,0.164-0.846,0.634-0.846,1.165v24c0,0.676,0.549,1.225,1.225,1.225c12.44,0,19.418-7.771,22.477-13.773
		C60.164,39.652,60.701,32.816,58.617,26.409z M54.922,44.544c-2.762,5.421-8.936,11.604-19.07,12.409V35.094l20.785-6.753
		C58.094,33.779,57.498,39.488,54.922,44.544z"/>
</g>
<g display="none">
	<path display="inline" fill="#0071bc" d="M29.998,60C13.457,60,0,46.543,0,30C0,13.459,13.457,0,29.998,0C46.541,0,60,13.457,60,30
		C59.998,46.543,46.541,60,29.998,60z M29.998,2.312C14.73,2.312,2.31,14.732,2.31,30c0,15.27,12.42,27.691,27.688,27.691
		c15.27,0,27.691-12.422,27.691-27.691C57.688,14.732,45.268,2.312,29.998,2.312z M42.189,45.447
		c2.865-1.074,5.216-3.162,6.617-5.879c0.438-0.85,0.104-1.896-0.746-2.335c-0.85-0.438-1.895-0.106-2.335,0.746
		c-1.007,1.951-2.696,3.45-4.755,4.224c-2.064,0.777-4.33,0.756-6.378-0.057c-0.888-0.354-1.896,0.082-2.249,0.972
		c-0.354,0.89,0.082,1.897,0.973,2.249c1.46,0.578,2.998,0.869,4.538,0.869C39.322,46.236,40.79,45.975,42.189,45.447z
		 M42.71,17.879c-4.391,0-8.505,1.811-12.386,1.629C30.224,19.501,30.115,19.499,30,19.5c-0.116-0.001-0.224,0.001-0.326,0.008
		c-3.877,0.182-7.993-1.629-12.383-1.629c-4.41,0-8.898,1.431-8.898,1.431v2.188c0,0,1.113,0.919,1.391,1.656
		c0.277,0.735,1.537,5.817,2.383,6.778s1.432,2.921,6.871,2.869c7.747-0.186,9.252-8.201,9.533-9.262
		c0.17-0.719,0.924-0.683,1.43-0.694c0.507,0.012,1.261-0.024,1.428,0.694c0.283,1.061,1.789,9.076,9.533,9.262
		c5.441,0.052,6.029-1.908,6.871-2.869c0.844-0.961,2.105-6.043,2.384-6.778c0.276-0.737,1.391-1.656,1.391-1.656V19.31
		C51.607,19.309,47.117,17.879,42.71,17.879z"/>
</g>
<g display="none">
	<g display="inline">
		<g>
			<path fill="#0071bc" d="M31.25,10.063V1.25C31.25,0.559,30.691,0,30,0s-1.25,0.559-1.25,1.25v8.813C15.547,10.721,5,21.637,5,35
				c0,13.785,11.215,25,25,25s25-11.215,25-25C55,21.637,44.453,10.721,31.25,10.063z M21.645,14.127
				c-1.672,1.84-3.098,4.229-4.195,7.022c-1.479-0.352-2.848-0.769-4.086-1.243C15.637,17.401,18.456,15.408,21.645,14.127z
				 M11.724,21.928c1.468,0.613,3.109,1.15,4.911,1.59c-0.873,2.869-1.421,6.07-1.576,9.488c-3.329-1.04-5.663-2.376-6.792-3.734
				C8.974,26.596,10.152,24.117,11.724,21.928z M7.5,35c0-0.963,0.081-1.904,0.199-2.836c1.74,1.382,4.249,2.551,7.319,3.438
				c0.051,3.699,0.563,7.168,1.444,10.273c-3.48-0.919-6.223-2.18-7.752-3.656C7.938,39.949,7.5,37.527,7.5,35z M10.679,46.471
				c1.871,0.895,4.154,1.63,6.707,2.204c1.106,2.868,2.553,5.321,4.259,7.198C17.039,54.023,13.195,50.691,10.679,46.471z
				 M28.75,57.387c-3.383-0.608-6.373-3.656-8.418-8.147c2.619,0.419,5.449,0.669,8.418,0.725V57.387z M28.75,47.464
				c-3.354-0.069-6.578-0.397-9.471-0.954c-1.011-3.037-1.631-6.53-1.744-10.27c3.325,0.732,7.136,1.166,11.215,1.24V47.464
				L28.75,47.464z M28.75,34.979c-4.297-0.08-8.076-0.565-11.213-1.304c0.113-3.48,0.658-6.751,1.555-9.632
				c2.977,0.552,6.254,0.866,9.658,0.93V34.979L28.75,34.979z M28.75,22.475c-3.102-0.061-6.083-0.33-8.795-0.809
				c2.045-4.979,5.192-8.404,8.795-9.052V22.475L28.75,22.475z M46.637,19.905c-1.238,0.476-2.607,0.892-4.086,1.243
				c-1.098-2.794-2.523-5.182-4.195-7.021C41.544,15.408,44.361,17.4,46.637,19.905z M31.25,12.613
				c3.604,0.648,6.75,4.074,8.795,9.053c-2.712,0.479-5.693,0.748-8.795,0.809V12.613z M31.25,24.974
				c3.404-0.063,6.681-0.378,9.658-0.931c0.894,2.873,1.438,6.134,1.554,9.604c-3.153,0.75-6.94,1.25-11.212,1.332V24.974z
				 M31.25,37.48c4.08-0.074,7.891-0.508,11.215-1.24c-0.113,3.74-0.733,7.232-1.744,10.27c-2.893,0.557-6.117,0.885-9.471,0.954
				V37.48L31.25,37.48z M31.25,57.387v-7.423c2.969-0.056,5.799-0.306,8.419-0.725C37.623,53.731,34.633,56.778,31.25,57.387z
				 M38.355,55.873c1.706-1.877,3.152-4.33,4.26-7.199c2.553-0.574,4.836-1.309,6.707-2.204
				C46.806,50.691,42.961,54.023,38.355,55.873z M52.5,35c0,2.527-0.438,4.951-1.211,7.221c-1.529,1.477-4.271,2.736-7.75,3.654
				c0.881-3.105,1.393-6.573,1.443-10.273c3.07-0.887,5.579-2.056,7.318-3.438C52.419,33.096,52.5,34.037,52.5,35z M51.732,29.271
				c-1.115,1.326-3.465,2.654-6.792,3.699c-0.157-3.404-0.706-6.594-1.575-9.454c1.802-0.438,3.443-0.976,4.91-1.591
				C49.848,24.116,51.026,26.596,51.732,29.271z"/>
			<path fill="#0071bc" d="M45.917,7.455c1.239,0.343,1.285,0.388,1.628,1.628C47.695,9.625,48.188,10,48.75,10
				s1.055-0.375,1.205-0.917c0.343-1.24,0.389-1.286,1.628-1.628C52.125,7.305,52.5,6.813,52.5,6.25
				c0-0.563-0.375-1.055-0.917-1.205c-1.239-0.343-1.285-0.388-1.628-1.628c-0.301-1.084-2.109-1.084-2.41,0
				c-0.343,1.24-0.389,1.285-1.629,1.628C45.375,5.195,45,5.687,45,6.25C45,6.813,45.375,7.305,45.917,7.455z"/>
			<path fill="#0071bc" d="M6.583,55.045c-1.24-0.343-1.285-0.389-1.628-1.628c-0.3-1.084-2.109-1.084-2.41,0
				c-0.343,1.239-0.388,1.285-1.628,1.628C0.375,55.195,0,55.688,0,56.25s0.375,1.055,0.917,1.205
				c1.24,0.343,1.285,0.389,1.628,1.628C2.695,59.625,3.188,60,3.75,60s1.055-0.375,1.205-0.917
				c0.343-1.239,0.389-1.285,1.628-1.628C7.125,57.305,7.5,56.813,7.5,56.25S7.125,55.195,6.583,55.045z"/>
			<path fill="#0071bc" d="M59.083,13.795c-0.169-0.046-0.27-0.082-0.28-0.072c-0.02-0.047-0.052-0.138-0.098-0.306
				c-0.301-1.084-2.109-1.084-2.41,0c-0.047,0.169-0.078,0.259-0.073,0.28c-0.046,0.02-0.137,0.052-0.306,0.098
				C55.375,13.945,55,14.438,55,15s0.375,1.055,0.916,1.205c0.17,0.046,0.264,0.063,0.281,0.072c0.02,0.047,0.052,0.138,0.098,0.306
				c0.15,0.542,0.644,0.917,1.205,0.917s1.055-0.375,1.205-0.917c0.046-0.169,0.078-0.259,0.072-0.28
				c0.047-0.02,0.137-0.052,0.306-0.098C59.625,16.055,60,15.562,60,15S59.625,13.945,59.083,13.795z"/>
		</g>
	</g>
</g>
<g display="none">
	<g display="inline">
		<g>
			<path fill="#0071bc" d="M58,0H2C0.896,0.001,0.001,0.896,0,2v56c0.001,1.104,0.896,1.999,2,2h56c1.104-0.001,1.999-0.896,2-2V2
				C59.999,0.896,59.104,0.001,58,0z M2,2h56v4H2V2z M2,58V8h56l0.002,50H2L2,58z"/>
			<path fill="#0071bc" d="M11,3H5C4.448,3,4,3.448,4,4s0.448,1,1,1h6c0.552,0,1-0.448,1-1S11.552,3,11,3z"/>
			<path fill="#0071bc" d="M17,3h-2c-0.553,0-1,0.448-1,1s0.447,1,1,1h2c0.553,0,1-0.448,1-1S17.553,3,17,3z"/>
			<path fill="#0071bc" d="M23,3h-2c-0.553,0-1,0.448-1,1s0.447,1,1,1h2c0.553,0,1-0.448,1-1S23.553,3,23,3z"/>
			<path fill="#0071bc" d="M29,3h-2c-0.553,0-1,0.448-1,1s0.447,1,1,1h2c0.553,0,1-0.448,1-1S29.553,3,29,3z"/>
			<path fill="#0071bc" d="M35,3h-2c-0.553,0-1,0.448-1,1s0.447,1,1,1h2c0.553,0,1-0.448,1-1S35.553,3,35,3z"/>
			<path fill="#0071bc" d="M56,3h-1c-0.553,0-1,0.448-1,1s0.447,1,1,1h1c0.553,0,1-0.448,1-1S56.553,3,56,3z"/>
			<path fill="#0071bc" d="M53,39h-3v-6c-0.002-1.656-1.344-2.998-3-3H31v-5h3c1.656-0.002,2.998-1.344,3-3v-6
				c-0.002-1.656-1.344-2.998-3-3h-8c-1.656,0.002-2.998,1.344-3,3v6c0.002,1.656,1.344,2.998,3,3h3v5H13
				c-1.656,0.002-2.998,1.344-3,3v6H7c-1.656,0.002-2.998,1.344-3,3v6c0.002,1.656,1.344,2.998,3,3h8c1.656-0.002,2.998-1.344,3-3
				v-6c-0.002-1.656-1.344-2.998-3-3h-3v-6c0-0.552,0.448-0.999,1-1h16v7h-3c-1.656,0.002-2.998,1.344-3,3v6
				c0.002,1.656,1.344,2.998,3,3h8c1.656-0.002,2.998-1.344,3-3v-6c-0.002-1.656-1.344-2.998-3-3h-3v-7h16
				c0.552,0.001,0.999,0.448,1,1v6h-3c-1.656,0.002-2.998,1.344-3,3v6c0.002,1.656,1.344,2.998,3,3h8c1.656-0.002,2.998-1.344,3-3
				v-6C55.998,40.344,54.656,39.002,53,39z M15,41c0.552,0.001,0.999,0.448,1,1v6c-0.001,0.552-0.448,0.999-1,1H7
				c-0.552-0.001-1-0.448-1-1v-6c0-0.552,0.448-0.999,1-1h3v3c0,0.553,0.448,1,1,1s1-0.447,1-1v-3H15z M34,41
				c0.552,0.001,0.999,0.448,1,1v6c-0.001,0.552-0.448,0.999-1,1h-8c-0.553-0.001-1-0.448-1-1v-6c0-0.552,0.447-0.999,1-1h3v3
				c0,0.553,0.447,1,1,1s1-0.447,1-1v-3H34z M30,19c-0.553,0-1,0.447-1,1v3h-3c-0.552-0.001-0.999-0.448-1-1v-6
				c0.001-0.552,0.448-1,1-1h8c0.553,0,1,0.448,1,1v6c0,0.552-0.447,0.999-1,1h-3v-3C31,19.447,30.553,19,30,19z M54,48
				c0,0.552-0.448,0.999-1,1h-8c-0.552-0.001-0.999-0.448-1-1v-6c0.001-0.552,0.448-0.999,1-1h3v3c0,0.553,0.447,1,1,1s1-0.447,1-1
				v-3h3c0.552,0.001,0.999,0.448,1,1V48L54,48z"/>
		</g>
	</g>
</g>
<g display="none">
	<path display="inline" fill="#0071bc" d="M58.168,42.274h-1.752V12.467c0-2.899-2.359-5.26-5.259-5.26H8.843
		c-2.9,0-5.26,2.361-5.26,5.26v29.807H1.83c-0.969,0-1.753,0.784-1.753,1.754c0,4.833,3.933,8.765,8.767,8.765h42.314
		c4.833,0,8.767-3.932,8.767-8.765C59.924,43.059,59.138,42.274,58.168,42.274z M7.089,12.467c0-0.967,0.787-1.752,1.754-1.752
		h42.314c0.966,0,1.752,0.786,1.752,1.752v29.807H7.089V12.467z M51.157,49.287H8.843c-2.286,0-4.236-1.466-4.959-3.507h52.23
		C55.393,47.821,53.442,49.287,51.157,49.287z"/>
	<path display="inline" fill="#0071bc" d="M20.603,21.746c-0.684-0.684-1.795-0.684-2.479,0L11.11,28.76
		c-0.685,0.685-0.685,1.795,0,2.48l7.013,7.013c0.684,0.685,1.795,0.685,2.479,0c0.686-0.685,0.686-1.794,0-2.479L14.829,30
		l5.773-5.774C21.288,23.541,21.288,22.432,20.603,21.746z"/>
	<path display="inline" fill="#0071bc" d="M41.875,21.747c-0.683-0.684-1.795-0.684-2.478,0c-0.685,0.686-0.685,1.795,0,2.479
		l5.772,5.774l-5.772,5.772c-0.685,0.686-0.685,1.795,0,2.479c0.683,0.685,1.793,0.685,2.478,0l7.014-7.013
		c0.687-0.684,0.687-1.794,0-2.479L41.875,21.747z"/>
	<path display="inline" fill="#0071bc" d="M34.061,17.818c-0.918-0.306-1.911,0.19-2.218,1.109L24.83,39.965
		c-0.307,0.919,0.19,1.911,1.108,2.218c0.918,0.307,1.912-0.19,2.218-1.108l7.014-21.039C35.477,19.116,34.98,18.125,34.061,17.818z
		"/>
</g>
<g display="none">
	<g display="inline">
		<g>
			<path fill="#0071bc" d="M59,12c-1.656,0-3-1.343-3-3c0-0.552-0.447-1-1-1s-1,0.448-1,1c0,1.657-1.344,3-3,3c-0.553,0-1,0.448-1,1
				s0.447,1,1,1c1.656,0,3,1.343,3,3c0,0.553,0.447,1,1,1s1-0.447,1-1c0-1.657,1.344-3,3-3c0.553,0,1-0.448,1-1S59.553,12,59,12z
				 M55,14.031c-0.291-0.393-0.639-0.74-1.031-1.031c0.393-0.292,0.74-0.639,1.031-1.031c0.291,0.393,0.639,0.74,1.031,1.031
				C55.639,13.292,55.291,13.639,55,14.031z"/>
		</g>
	</g>
	<g display="inline">
		<g>
			<rect x="2" y="41" fill="#0071bc" width="2" height="2"/>
		</g>
	</g>
	<g display="inline">
		<g>
			<rect x="2" y="45" fill="#0071bc" width="2" height="2"/>
		</g>
	</g>
	<g display="inline">
		<g>
			<rect y="43" fill="#0071bc" width="2" height="2"/>
		</g>
	</g>
	<g display="inline">
		<g>
			<rect x="4" y="43" fill="#0071bc" width="2" height="2"/>
		</g>
	</g>
	<g display="inline">
		<g>
			<path fill="#0071bc" d="M31,6.025V0h-2v6.025C16.625,6.555,6.68,16.405,6.031,28.773C6.01,29.18,6,29.589,6,30
				s0.01,0.82,0.031,1.227C6.695,43.922,17.132,53.902,29.844,54c0.053,0,0.1,0,0.154,0c13.255-0.049,23.959-10.834,23.91-24.09
				C53.861,17.115,43.783,6.607,31,6.025z M26.23,8.33l0.043-0.008c-3.275,2.664-5.902,6.039-7.68,9.87
				c-2.909,0.615-5.762,1.469-8.532,2.552C13.108,14.219,19.142,9.587,26.23,8.33z M8.085,28.128C8.091,28.059,8.1,27.99,8.1,27.922
				c0.057-0.6,0.138-1.191,0.244-1.773c0.012-0.07,0.024-0.142,0.037-0.211c0.113-0.601,0.247-1.186,0.407-1.764
				c0.009-0.033,0.019-0.068,0.029-0.1c0.082-0.291,0.187-0.571,0.28-0.857c0.1-0.004,0.198-0.023,0.292-0.058
				c2.679-1.128,5.446-2.03,8.275-2.7c-0.986,2.744-1.539,5.627-1.636,8.541H8.046C8.059,28.709,8.061,28.416,8.085,28.128z
				 M9.1,36.785c-0.093-0.286-0.2-0.566-0.28-0.857c-0.01-0.033-0.02-0.068-0.029-0.1c-0.16-0.578-0.294-1.167-0.407-1.764
				c-0.013-0.069-0.025-0.141-0.037-0.211C8.242,33.27,8.16,32.679,8.103,32.08c-0.006-0.068-0.01-0.137-0.016-0.206
				c-0.024-0.288-0.026-0.581-0.039-0.872h7.982c0.098,2.916,0.65,5.8,1.637,8.546c-2.828-0.669-5.596-1.572-8.275-2.7
				C9.298,36.813,9.2,36.791,9.1,36.785z M26.23,51.67c-7.089-1.258-13.122-5.889-16.168-12.413c2.77,1.083,5.623,1.937,8.532,2.552
				c1.777,3.83,4.404,7.205,7.68,9.869L26.23,51.67z M29,51.234c-3.309-2.328-6.027-5.398-7.936-8.967
				c2.625,0.426,5.277,0.662,7.936,0.707V51.234z M29,40.975c-3.018-0.051-6.025-0.359-8.99-0.923
				c-1.197-2.874-1.867-5.94-1.978-9.052H29V40.975z M29,29H18.032c0.111-3.111,0.781-6.178,1.978-9.052
				c2.965-0.563,5.973-0.872,8.99-0.923V29z M29,17.025c-2.658,0.045-5.311,0.281-7.936,0.708c1.908-3.568,4.627-6.639,7.936-8.967
				V17.025z M50.743,23.184c0.617,1.882,0.975,3.838,1.063,5.816h-7.982c-0.099-2.93-0.656-5.826-1.651-8.583
				c2.885,0.674,5.707,1.591,8.437,2.74C50.654,23.169,50.698,23.178,50.743,23.184z M49.759,20.673
				c-2.766-1.07-5.614-1.913-8.518-2.521l0,0c-1.778-3.815-4.399-7.177-7.665-9.833C40.658,9.56,46.695,14.168,49.759,20.673z
				 M31,8.873c3.233,2.308,5.893,5.328,7.773,8.827c-2.572-0.408-5.17-0.633-7.773-0.675V8.873z M31,19.025
				c2.963,0.051,5.917,0.35,8.83,0.894c1.203,2.883,1.877,5.959,1.99,9.081H31V19.025z M31,31h10.82
				c-0.113,3.122-0.787,6.198-1.991,9.081c-2.913,0.544-5.866,0.843-8.829,0.894V31z M31,42.975c2.604-0.042,5.201-0.27,7.773-0.679
				c-1.88,3.501-4.539,6.522-7.773,8.831V42.975z M33.575,51.68v-0.005c3.267-2.654,5.888-6.017,7.666-9.833
				c2.903-0.606,5.752-1.449,8.518-2.52C46.695,45.828,40.658,50.438,33.575,51.68z M50.743,36.816
				c-0.045,0.006-0.089,0.015-0.134,0.026c-2.729,1.149-5.552,2.066-8.437,2.74c0.995-2.757,1.553-5.653,1.651-8.583h7.982
				C51.717,32.979,51.359,34.936,50.743,36.816z"/>
		</g>
	</g>
	<g display="inline">
		<g>
			<path fill="#0071bc" d="M22.02,25h-0.01c-0.553,0.003-0.998,0.453-0.994,1.005c0.002,0.552,0.452,0.998,1.004,0.995
				c0.553,0,1-0.447,1-1S22.572,25,22.02,25z"/>
		</g>
	</g>
	<g display="inline">
		<g>
			<path fill="#0071bc" d="M38.02,21h-0.01c-0.555,0.003-1.002,0.455-1,1.01c0.003,0.555,0.455,1.003,1.01,1
				c0.556-0.002,1.004-0.455,1-1.01C39.018,21.449,38.571,21.003,38.02,21z"/>
		</g>
	</g>
	<g display="inline">
		<g>
			<path fill="#0071bc" d="M42.02,45h-0.01c-0.555,0.003-1.002,0.455-1,1.01c0.003,0.555,0.455,1.003,1.01,1
				c0.556-0.002,1.004-0.455,1-1.01C43.018,45.449,42.571,45.003,42.02,45z"/>
		</g>
	</g>
	<g display="inline">
		<g>
			<path fill="#0071bc" d="M11.02,34h-0.01c-0.555,0.003-1.002,0.455-1,1.01c0.003,0.555,0.455,1.003,1.01,1
				c0.555-0.002,1.003-0.455,1-1.01C12.017,34.449,11.571,34.003,11.02,34z"/>
		</g>
	</g>
	<g display="inline">
		<g>
			<path fill="#0071bc" d="M25.02,35h-0.01c-0.555,0.003-1.002,0.455-1,1.01c0.003,0.555,0.455,1.003,1.01,1
				c0.556-0.002,1.004-0.455,1-1.01C26.018,35.449,25.571,35.003,25.02,35z"/>
		</g>
	</g>
	<g display="inline">
		<g>
			<path fill="#0071bc" d="M20.02,11h-0.01c-0.552,0.003-0.998,0.453-0.995,1.005c0.002,0.552,0.453,0.998,1.005,0.995
				c0.552,0,1-0.448,1-1S20.572,11,20.02,11z"/>
		</g>
	</g>
	<g display="inline">
		<g>
			<rect x="29" y="56" fill="#0071bc" width="2" height="4"/>
		</g>
	</g>
	<g display="inline">
		<g>
			<rect y="29" fill="#0071bc" width="4" height="2"/>
		</g>
	</g>
	<g display="inline">
		<g>
			<rect x="56" y="29" fill="#0071bc" width="4" height="2"/>
		</g>
	</g>
	<g display="inline">
		<g>
			
				<rect x="10" y="7.586" transform="matrix(-0.7071 0.7071 -0.7071 -0.7071 25.1411 7.5857)" fill="#0071bc" width="2" height="2.828"/>
		</g>
	</g>
	<g display="inline">
		<g>
			
				<rect x="47.586" y="7.996" transform="matrix(-0.707 0.7072 -0.7072 -0.707 90.0058 -19.2964)" fill="#0071bc" width="2.827" height="2"/>
		</g>
	</g>
	<g display="inline">
		<g>
			
				<rect x="7.585" y="48" transform="matrix(-0.707 0.7072 -0.7072 -0.707 50.0144 77.2798)" fill="#0071bc" width="2.828" height="2"/>
		</g>
	</g>
	<g display="inline">
		<g>
			
				<rect x="50" y="47.582" transform="matrix(-0.7071 0.7071 -0.7071 -0.7071 121.7079 47.5791)" fill="#0071bc" width="2" height="2.828"/>
		</g>
	</g>
</g>
<g display="none">
	<g display="inline">
		<g>
			<path fill="#0071bc" d="M57.5,22.496h-4.975c-0.354-1.071-0.784-2.115-1.288-3.125l3.513-3.512c0-0.001,0-0.001,0-0.002
				c0.977-0.977,0.977-2.559,0-3.535L47.678,5.25c-0.989-0.944-2.546-0.944-3.535,0l-3.518,3.516
				c-1.01-0.504-2.054-0.935-3.125-1.288V2.5C37.5,1.119,36.381,0,35,0H25c-1.381,0-2.5,1.119-2.5,2.5v4.978
				c-1.072,0.353-2.118,0.782-3.129,1.285L15.859,5.25c-0.99-0.946-2.548-0.946-3.537,0L5.25,12.322
				c-0.976,0.977-0.976,2.559,0,3.535l3.516,3.518c-0.504,1.01-0.935,2.054-1.288,3.125H2.5C1.119,22.5,0,23.619,0,25v5h2.5v-5
				h5.898c0.558,0,1.047-0.369,1.201-0.904c0.434-1.514,1.035-2.976,1.793-4.357c0.27-0.487,0.184-1.094-0.21-1.488l-4.164-4.16
				l7.071-7.071l4.165,4.164c0.394,0.394,1,0.479,1.487,0.21c1.381-0.758,2.841-1.358,4.354-1.793C24.631,9.445,25,8.956,25,8.398
				V2.5h10v5.898c0,0.558,0.368,1.047,0.903,1.201c1.515,0.434,2.978,1.035,4.358,1.793c0.488,0.27,1.094,0.184,1.488-0.21
				l4.16-4.164l7.07,7.071l-4.163,4.164c-0.394,0.394-0.479,1.001-0.21,1.488c0.758,1.381,1.358,2.841,1.793,4.354
				C50.555,24.631,51.044,25,51.602,25H57.5v5H60v-5.004C60,23.615,58.881,22.496,57.5,22.496z"/>
		</g>
	</g>
	<g display="inline">
		<g>
			<path fill="#0071bc" d="M30,16.25c-6.903,0-12.5,5.597-12.5,12.5V30H20v-1.25c0-5.523,4.477-10,10-10s10,4.477,10,10V30h2.5
				v-1.25C42.5,21.847,36.903,16.25,30,16.25z"/>
		</g>
	</g>
	<g display="inline">
		<g>
			<rect x="28.75" y="5" fill="#0071bc" width="2.5" height="2.5"/>
		</g>
	</g>
	<g display="inline">
		<g>
			<rect x="12.5" y="12.5" fill="#0071bc" width="2.5" height="2.5"/>
		</g>
	</g>
	<g display="inline">
		<g>
			<rect x="5" y="27.5" fill="#0071bc" width="2.5" height="2.5"/>
		</g>
	</g>
	<g display="inline">
		<g>
			<rect x="52.5" y="27.5" fill="#0071bc" width="2.5" height="2.5"/>
		</g>
	</g>
	<g display="inline">
		<g>
			<rect x="45" y="12.5" fill="#0071bc" width="2.5" height="2.5"/>
		</g>
	</g>
	<g display="inline">
		<g>
			<path fill="#0071bc" d="M15,47.5H2.5C1.119,47.5,0,48.619,0,50v7.5C0,58.881,1.119,60,2.5,60H15c1.381,0,2.5-1.119,2.5-2.5V50
				C17.5,48.619,16.381,47.5,15,47.5z M15,57.5H2.5V50H15V57.5z"/>
		</g>
	</g>
	<g display="inline">
		<g>
			<path fill="#0071bc" d="M57.5,47.5H45c-1.381,0-2.5,1.119-2.5,2.5v7.5c0,1.381,1.119,2.5,2.5,2.5h12.5c1.381,0,2.5-1.119,2.5-2.5
				V50C60,48.619,58.881,47.5,57.5,47.5z M57.5,57.5H45V50h12.5V57.5z"/>
		</g>
	</g>
	<g display="inline">
		<g>
			<path fill="#0071bc" d="M36.25,47.5h-12.5c-1.381,0-2.5,1.119-2.5,2.5v7.5c0,1.381,1.119,2.5,2.5,2.5h12.5
				c1.381,0,2.5-1.119,2.5-2.5V50C38.75,48.619,37.631,47.5,36.25,47.5z M36.25,57.5L36.25,57.5h-12.5V50h12.5V57.5z"/>
		</g>
	</g>
	<g display="inline">
		<g>
			<path fill="#0071bc" d="M51.25,37.5H8.75c-0.69,0-1.25,0.56-1.25,1.25V45H10v-5h40v5h2.5v-6.25C52.5,38.06,51.94,37.5,51.25,37.5
				z"/>
		</g>
	</g>
	<g display="inline">
		<g>
			<rect x="28.75" y="28.75" fill="#0071bc" width="2.5" height="16.25"/>
		</g>
	</g>
	<g display="inline">
		<g>
			<rect x="5" y="52.5" fill="#0071bc" width="2.5" height="2.5"/>
		</g>
	</g>
	<g display="inline">
		<g>
			<rect x="10" y="52.5" fill="#0071bc" width="2.5" height="2.5"/>
		</g>
	</g>
	<g display="inline">
		<g>
			<rect x="26.25" y="52.5" fill="#0071bc" width="2.5" height="2.5"/>
		</g>
	</g>
	<g display="inline">
		<g>
			<rect x="31.25" y="52.5" fill="#0071bc" width="2.5" height="2.5"/>
		</g>
	</g>
	<g display="inline">
		<g>
			<rect x="47.5" y="52.5" fill="#0071bc" width="2.5" height="2.5"/>
		</g>
	</g>
	<g display="inline">
		<g>
			<rect x="52.5" y="52.5" fill="#0071bc" width="2.5" height="2.5"/>
		</g>
	</g>
	<g display="inline">
		<g>
			<path fill="#0071bc" d="M30,22.5c-3.451,0-6.25,2.799-6.25,6.25V30h2.5v-1.25c0-2.071,1.679-3.75,3.75-3.75s3.75,1.679,3.75,3.75
				V30h2.5v-1.25C36.25,25.299,33.451,22.5,30,22.5z"/>
		</g>
	</g>
</g>
<g display="none">
	<g display="inline">
		<g>
			<path fill="#0071bc" d="M15.701,0.004C7.043,0.004,0,7.047,0,15.705c0,8.657,7.043,15.701,15.701,15.701
				c8.658,0,15.701-7.044,15.701-15.701C31.402,7.047,24.359,0.004,15.701,0.004z M15.701,29.063c-3.219,0-6.176-1.145-8.485-3.049
				c0.036-1.635,1.214-3.027,2.83-3.326l2.263-0.418c0.005-0.001,0.01-0.003,0.016-0.004l2.382,3.809
				c0.215,0.344,0.59,0.551,0.994,0.551c0.403,0,0.779-0.208,0.992-0.551l2.381-3.809c0.006,0.002,0.01,0.003,0.016,0.004
				l2.264,0.418c1.616,0.3,2.795,1.693,2.83,3.329C21.875,27.919,18.919,29.063,15.701,29.063z M13.144,13.207
				c1.638,0,3.198-0.596,4.407-1.662l1.979,1.162v1.453c0,2.111-1.718,3.83-3.829,3.83c-2.112,0-3.83-1.719-3.83-3.83v-0.952l0,0
				L13.144,13.207L13.144,13.207z M11.871,10.864v-0.032c0-2.111,1.717-3.829,3.83-3.829c1.799,0,3.312,1.247,3.72,2.922
				l-1.471-0.864c-0.494-0.29-1.125-0.181-1.492,0.258c-0.823,0.982-2.031,1.546-3.313,1.546H11.871z M17.111,20.986L15.7,23.243
				l-1.413-2.259c0.157-0.227,0.283-0.477,0.374-0.74c0.338,0.057,0.685,0.089,1.038,0.089c0.354,0,0.701-0.032,1.038-0.089
				C16.829,20.509,16.955,20.758,17.111,20.986z M26.146,24.021c-0.705-1.846-2.328-3.262-4.367-3.638l-2.264-0.419
				c-0.273-0.051-0.514-0.278-0.581-0.55c1.761-1.089,2.938-3.036,2.938-5.255v-3.328c0-3.403-2.77-6.173-6.174-6.173
				c-3.403,0-6.172,2.77-6.172,6.173v3.328c0,2.218,1.176,4.166,2.937,5.254c-0.067,0.273-0.307,0.5-0.581,0.551L9.62,20.383
				c-2.038,0.377-3.66,1.791-4.366,3.636c-1.82-2.283-2.911-5.173-2.911-8.313c0-7.365,5.993-13.358,13.358-13.358
				S29.059,8.34,29.059,15.705C29.059,18.846,27.969,21.738,26.146,24.021z"/>
		</g>
	</g>
	<g display="inline">
		<g>
			<path fill="#0071bc" d="M44.299,28.594c-8.658,0-15.701,7.044-15.701,15.701c0,8.658,7.043,15.701,15.701,15.701
				S60,52.953,60,44.295C60,35.638,52.957,28.594,44.299,28.594z M44.299,57.653c-3.219,0-6.175-1.144-8.483-3.047
				c0.049-1.624,1.224-3.001,2.829-3.299l2.264-0.419c0.006,0,0.01-0.002,0.016-0.003l2.382,3.81c0.214,0.342,0.59,0.55,0.993,0.55
				c0.404,0,0.779-0.208,0.994-0.55l2.381-3.81c0.005,0.001,0.01,0.003,0.014,0.003l2.265,0.42c1.606,0.297,2.78,1.674,2.829,3.298
				C50.473,56.509,47.518,57.653,44.299,57.653z M41.742,41.828c1.639,0,3.199-0.598,4.407-1.664l1.979,1.162v1.454
				c0,2.111-1.718,3.829-3.829,3.829s-3.83-1.718-3.83-3.829v-0.952h0.001H41.742L41.742,41.828z M40.469,39.484v-0.032
				c0-2.111,1.719-3.829,3.83-3.829c1.799,0,3.313,1.247,3.721,2.922l-1.473-0.865c-0.492-0.289-1.123-0.18-1.491,0.258
				c-0.823,0.983-2.03,1.547-3.313,1.547H40.469z M45.71,49.605l-1.411,2.258l-1.412-2.258c0.156-0.229,0.281-0.478,0.373-0.742
				c0.338,0.059,0.685,0.09,1.039,0.09c0.354,0,0.699-0.031,1.037-0.09C45.428,49.129,45.553,49.379,45.71,49.605z M54.736,52.62
				c-0.709-1.835-2.328-3.241-4.357-3.616l-2.266-0.419c-0.272-0.05-0.513-0.278-0.58-0.55c1.762-1.089,2.938-3.037,2.938-5.255
				v-3.328c0-3.403-2.769-6.173-6.172-6.173c-3.404,0-6.173,2.77-6.173,6.173v3.328c0,2.218,1.176,4.165,2.937,5.254
				c-0.066,0.272-0.307,0.501-0.58,0.551l-2.264,0.419c-2.031,0.375-3.648,1.781-4.359,3.616c-1.825-2.284-2.919-5.179-2.919-8.325
				c0-7.365,5.993-13.357,13.358-13.357s13.357,5.992,13.357,13.357C57.656,47.441,56.563,50.336,54.736,52.62z"/>
		</g>
	</g>
	<g display="inline">
		<g>
			<path fill="#0071bc" d="M53.322,25.436c-0.218-0.218-0.52-0.342-0.828-0.342s-0.61,0.124-0.828,0.342
				c-0.219,0.22-0.344,0.521-0.344,0.83s0.125,0.609,0.344,0.828c0.218,0.218,0.52,0.344,0.828,0.344s0.61-0.125,0.828-0.344
				c0.219-0.219,0.344-0.52,0.344-0.828S53.541,25.655,53.322,25.436z"/>
		</g>
	</g>
	<g display="inline">
		<g>
			<path fill="#0071bc" d="M52.494,6.331h-15.78l0.009-0.009c0.458-0.458,0.458-1.2,0-1.657c-0.457-0.458-1.199-0.458-1.657,0
				l-2.009,2.009c-0.458,0.458-0.458,1.2,0,1.657l2.009,2.01c0.229,0.228,0.528,0.343,0.829,0.343c0.299,0,0.6-0.115,0.828-0.343
				c0.457-0.458,0.457-1.2,0-1.657l-0.009-0.009h14.608v13.24c0,0.647,0.524,1.171,1.172,1.171c0.646,0,1.172-0.523,1.172-1.171
				V7.503C53.666,6.855,53.141,6.331,52.494,6.331z"/>
		</g>
	</g>
	<g display="inline">
		<g>
			<path fill="#0071bc" d="M48.908,21.086c-0.218-0.217-0.52-0.343-0.828-0.343s-0.61,0.125-0.828,0.343
				c-0.219,0.219-0.344,0.521-0.344,0.829c0,0.308,0.125,0.61,0.344,0.828c0.218,0.218,0.52,0.343,0.828,0.343
				c0.31,0,0.61-0.125,0.828-0.343c0.219-0.218,0.344-0.521,0.344-0.828C49.252,21.606,49.127,21.305,48.908,21.086z"/>
		</g>
	</g>
	<g display="inline">
		<g>
			<path fill="#0071bc" d="M48.908,16.399c-0.218-0.218-0.519-0.343-0.828-0.343c-0.309,0-0.609,0.125-0.828,0.343
				s-0.344,0.521-0.344,0.829c0,0.308,0.125,0.609,0.344,0.828c0.219,0.217,0.521,0.343,0.828,0.343c0.309,0,0.61-0.125,0.828-0.343
				c0.219-0.219,0.344-0.521,0.344-0.828C49.252,16.92,49.128,16.617,48.908,16.399z"/>
		</g>
	</g>
	<g display="inline">
		<g>
			<path fill="#0071bc" d="M48.908,11.713c-0.218-0.219-0.52-0.344-0.828-0.344s-0.61,0.125-0.828,0.344
				c-0.219,0.218-0.344,0.52-0.344,0.828s0.125,0.61,0.344,0.828c0.218,0.219,0.52,0.344,0.828,0.344s0.61-0.125,0.828-0.344
				c0.219-0.218,0.344-0.52,0.344-0.828S49.128,11.931,48.908,11.713z"/>
		</g>
	</g>
	<g display="inline">
		<g>
			<path fill="#0071bc" d="M8.328,32.687c-0.218-0.218-0.52-0.343-0.828-0.343c-0.309,0-0.611,0.125-0.829,0.343
				s-0.343,0.521-0.343,0.829c0,0.308,0.125,0.609,0.343,0.828c0.218,0.218,0.521,0.344,0.829,0.344s0.61-0.126,0.828-0.344
				c0.218-0.219,0.343-0.521,0.343-0.828C8.671,33.207,8.546,32.904,8.328,32.687z"/>
		</g>
	</g>
	<g display="inline">
		<g>
			<path fill="#0071bc" d="M26.938,51.669l-2.01-2.009c-0.458-0.458-1.199-0.458-1.657,0c-0.458,0.457-0.458,1.199,0,1.656
				l0.009,0.01H8.671V38.085c0-0.647-0.524-1.172-1.172-1.172c-0.647,0-1.171,0.524-1.171,1.172v14.413
				c0,0.646,0.524,1.171,1.171,1.171h15.78l-0.009,0.009c-0.458,0.458-0.458,1.199,0,1.658c0.229,0.229,0.528,0.343,0.829,0.343
				c0.299,0,0.6-0.114,0.828-0.343l2.009-2.01C27.395,52.869,27.395,52.127,26.938,51.669z"/>
		</g>
	</g>
	<g display="inline">
		<g>
			<path fill="#0071bc" d="M12.742,37.256c-0.218-0.217-0.521-0.343-0.829-0.343c-0.309,0-0.61,0.126-0.828,0.343
				c-0.219,0.219-0.344,0.521-0.344,0.829s0.125,0.61,0.344,0.828c0.218,0.218,0.52,0.344,0.828,0.344s0.609-0.126,0.829-0.344
				c0.218-0.218,0.343-0.521,0.343-0.828S12.959,37.475,12.742,37.256z"/>
		</g>
	</g>
	<g display="inline">
		<g>
			<path fill="#0071bc" d="M12.742,41.943c-0.219-0.218-0.521-0.344-0.829-0.344s-0.61,0.125-0.828,0.344
				c-0.219,0.218-0.344,0.521-0.344,0.828c0,0.309,0.125,0.611,0.344,0.828c0.218,0.219,0.519,0.344,0.828,0.344
				c0.308,0,0.609-0.125,0.829-0.344c0.218-0.217,0.343-0.52,0.343-0.828S12.959,42.161,12.742,41.943z"/>
		</g>
	</g>
	<g display="inline">
		<g>
			<path fill="#0071bc" d="M12.742,46.631c-0.218-0.219-0.521-0.344-0.829-0.344c-0.309,0-0.61,0.125-0.828,0.344
				c-0.219,0.218-0.344,0.52-0.344,0.828s0.125,0.61,0.344,0.828c0.218,0.218,0.519,0.344,0.828,0.344
				c0.308,0,0.61-0.125,0.829-0.344c0.218-0.218,0.343-0.52,0.343-0.828S12.959,46.848,12.742,46.631z"/>
		</g>
	</g>
</g>
<g display="none">
	<g display="inline">
		<path fill="#0071bc" d="M59.662,1.218c-0.064-0.516-0.471-0.922-0.986-0.986c-4.649-0.575-9.447-0.074-13.875,1.449
			c-4.43,1.522-8.521,4.078-11.834,7.39l-7.557,7.558l-10.909,1.407c-0.249,0.031-0.479,0.146-0.657,0.322L3.326,28.876
			c-0.297,0.298-0.406,0.735-0.281,1.138c0.125,0.402,0.462,0.703,0.876,0.779l7.953,1.473l1.563,1.563l-3.327,1.802
			c-0.314,0.171-0.53,0.479-0.582,0.834c-0.051,0.354,0.067,0.712,0.32,0.966l12.616,12.615c0.214,0.215,0.503,0.332,0.802,0.332
			c0.055,0,0.109-0.004,0.164-0.012c0.354-0.051,0.662-0.268,0.833-0.582l1.802-3.327l1.563,1.563l1.473,7.952
			c0.078,0.414,0.377,0.751,0.779,0.876c0.11,0.035,0.224,0.051,0.336,0.051c0.297,0,0.586-0.115,0.803-0.332l10.518-10.518
			c0.178-0.178,0.291-0.408,0.323-0.656l1.407-10.91l7.557-7.557c3.313-3.313,5.867-7.404,7.391-11.833
			C59.735,10.664,60.236,5.866,59.662,1.218z M12.047,29.992l-5.593-1.037l8.72-8.72l7.611-0.981L12.047,29.992z M22.992,47.367
			L12.526,36.9l2.583-1.398l9.281,9.281L22.992,47.367z M39.658,44.719l-8.721,8.721l-1.036-5.593l10.737-10.737L39.658,44.719z
			 M49.219,25.322L28.678,45.863L14.03,31.215l20.541-20.541c2.984-2.984,6.653-5.303,10.628-6.727
			c0.513,2.645,1.807,5.098,3.727,7.02c1.922,1.921,4.375,3.215,7.02,3.728C54.522,18.668,52.203,22.338,49.219,25.322z
			 M56.629,12.516c-2.299-0.393-4.438-1.491-6.099-3.152c-1.661-1.662-2.761-3.8-3.153-6.099c3.288-0.886,6.741-1.188,10.129-0.878
			C57.816,5.775,57.514,9.229,56.629,12.516z"/>
		<path fill="#0071bc" d="M33.465,16.699c-2.683,2.683-2.683,7.047,0,9.729c1.342,1.341,3.103,2.012,4.865,2.012
			c1.761,0,3.523-0.671,4.863-2.012h0.001c2.683-2.683,2.683-7.047-0.001-9.729C40.512,14.017,36.146,14.018,33.465,16.699z
			 M41.59,24.824c-1.798,1.799-4.724,1.799-6.521,0c-1.798-1.797-1.798-4.723,0-6.521c0.898-0.898,2.08-1.348,3.261-1.348
			s2.362,0.449,3.261,1.348C43.389,20.102,43.389,23.027,41.59,24.824z"/>
		<path fill="#0071bc" d="M14.873,45.234c-0.443-0.443-1.161-0.443-1.604,0l-9.73,9.729c-0.443,0.442-0.443,1.161,0,1.604
			c0.222,0.222,0.512,0.332,0.802,0.332c0.29,0,0.58-0.11,0.802-0.332l9.729-9.729C15.315,46.395,15.315,45.678,14.873,45.234z"/>
		<path fill="#0071bc" d="M16.369,48.335l-4.383,4.384c-0.443,0.442-0.443,1.16,0,1.604c0.221,0.221,0.512,0.332,0.802,0.332
			s0.581-0.111,0.802-0.332l4.384-4.384c0.442-0.442,0.442-1.161,0-1.604C17.53,47.893,16.813,47.893,16.369,48.335z"/>
		<path fill="#0071bc" d="M10.451,54.723c-0.475,0-0.907,0.307-1.067,0.752c-0.163,0.453-0.011,0.975,0.365,1.272
			c0.386,0.306,0.947,0.322,1.351,0.04c0.429-0.301,0.604-0.879,0.398-1.364C11.33,55.004,10.901,54.723,10.451,54.723z"/>
		<path fill="#0071bc" d="M11.498,55.423C11.527,55.491,11.471,55.355,11.498,55.423L11.498,55.423z"/>
		<path fill="#0071bc" d="M7.244,57.461l-0.604,0.604c-0.443,0.442-0.443,1.16,0,1.604C6.861,59.889,7.152,60,7.442,60
			s0.581-0.111,0.802-0.332l0.604-0.604c0.443-0.443,0.443-1.161,0-1.604C8.404,57.018,7.688,57.018,7.244,57.461z"/>
		<path fill="#0071bc" d="M6.426,47.479c-0.443-0.442-1.161-0.442-1.604,0l-4.384,4.384c-0.443,0.442-0.443,1.16,0,1.604
			c0.222,0.221,0.512,0.332,0.802,0.332c0.29,0,0.58-0.111,0.802-0.332l4.384-4.384C6.869,48.641,6.869,47.922,6.426,47.479z"/>
		<path fill="#0071bc" d="M8.236,47.045c0.46-0.116,0.805-0.518,0.854-0.989c0.047-0.462-0.207-0.915-0.619-1.122
			c-0.438-0.223-0.986-0.13-1.326,0.225c-0.363,0.381-0.416,0.973-0.129,1.412C7.006,46.557,7,46.547,7.018,46.574
			c0.02,0.028,0.013,0.018,0.004,0.005C7.289,46.967,7.776,47.16,8.236,47.045z"/>
		<path fill="#0071bc" d="M11.169,44.341l0.604-0.604c0.442-0.442,0.442-1.161-0.001-1.604c-0.443-0.443-1.16-0.442-1.604,0
			l-0.604,0.604c-0.442,0.442-0.442,1.161,0,1.604c0.223,0.221,0.512,0.332,0.803,0.332C10.657,44.674,10.947,44.563,11.169,44.341z
			"/>
	</g>
</g>
<g display="none">
	<g display="inline">
		<g>
			<path fill="#0071bc" d="M51.429,0c-1.184,0-2.144,0.959-2.144,2.143v7.828C38.254-0.71,20.651-0.425,9.971,10.607
				C4.937,15.807,2.129,22.764,2.143,30c0,1.184,0.96,2.143,2.143,2.143c1.184,0,2.144-0.959,2.144-2.143
				C6.431,16.982,16.986,6.431,30.005,6.433c6.611,0.001,12.919,2.779,17.382,7.657l-9.492,3.164
				c-1.125,0.375-1.732,1.589-1.359,2.713c0.375,1.125,1.59,1.732,2.713,1.359l12.857-4.286c0.878-0.292,1.469-1.115,1.467-2.04
				V2.143C53.571,0.959,52.611,0,51.429,0z"/>
		</g>
	</g>
	<g display="inline">
		<g>
			<path fill="#0071bc" d="M55.715,27.857c-1.184,0-2.144,0.959-2.144,2.143c-0.003,13.018-10.558,23.569-23.576,23.566
				c-6.611-0.001-12.919-2.779-17.383-7.656l9.493-3.164c1.124-0.375,1.732-1.589,1.358-2.713c-0.374-1.125-1.589-1.732-2.713-1.359
				L7.894,42.96C7.017,43.252,6.425,44.075,6.428,45v12.857c0,1.184,0.96,2.143,2.144,2.143s2.143-0.959,2.143-2.143v-7.828
				c11.032,10.681,28.634,10.396,39.315-0.637c5.033-5.199,7.842-12.156,7.828-19.393C57.857,28.816,56.897,27.857,55.715,27.857z"
				/>
		</g>
	</g>
</g>
<g display="none">
	<g id="info" display="inline">
		<path fill="#0071bc" d="M30-0.071C13.459-0.071-0.071,13.459-0.071,30S13.459,60.071,30,60.071S60.071,46.541,60.071,30
			S46.541-0.071,30-0.071z M33.006,45.036h-6.012V26.994h6.012V45.036z M33.006,20.981h-6.012v-6.017h6.012V20.981z"/>
	</g>
</g>
<g display="none">
	<path display="inline" fill="#0071bc" d="M56.124,14.818c-0.257-0.763-0.563-1.505-0.915-2.212l2.049-3.324l-6.54-6.538
		l-3.323,2.046c-0.708-0.354-1.448-0.658-2.213-0.916l-0.905-3.8h-9.248l-0.903,3.8c-0.765,0.257-1.505,0.563-2.213,0.916
		l-3.323-2.048l-6.54,6.54l2.048,3.324c-0.354,0.707-0.658,1.448-0.913,2.212l-2.951,0.702H4.902c-2.661,0-4.827,2.166-4.827,4.827
		v28.96c0,2.661,2.166,4.827,4.827,4.827h12.549v3.86h-3.862v1.931h32.822v-1.931h-3.862v-3.86h12.549
		c2.661,0,4.827-2.166,4.827-4.827V15.724L56.124,14.818z M40.618,57.994H19.382v-3.86h21.236V57.994z M55.098,52.202H4.902
		c-1.596,0-2.896-1.3-2.896-2.896V48.34h55.988v0.967C57.994,50.902,56.694,52.202,55.098,52.202z M57.994,46.411H2.006V20.347
		c0-1.596,1.3-2.896,2.896-2.896h14.48v7.521l3.801,0.903c0.257,0.765,0.562,1.505,0.913,2.213l-2.046,3.324l6.54,6.539l3.321-2.048
		c0.708,0.354,1.45,0.658,2.215,0.913l0.903,3.803h9.248l0.905-3.801c0.763-0.257,1.505-0.562,2.213-0.913l3.323,2.046l6.538-6.539
		l-2.047-3.322c0.352-0.709,0.658-1.45,0.913-2.215l1.872-0.444V46.411z M57.994,23.446l-3.392,0.806l-0.16,0.533
		c-0.303,1.012-0.704,1.984-1.191,2.887l-0.265,0.49l1.826,2.963l-4.383,4.383l-2.961-1.826l-0.492,0.265
		c-0.902,0.485-1.873,0.887-2.885,1.191l-0.533,0.16l-0.808,3.389h-6.196l-0.807-3.391l-0.532-0.158
		c-1.015-0.305-1.985-0.706-2.886-1.193l-0.491-0.263l-2.962,1.826l-4.384-4.385l1.826-2.961l-0.263-0.492
		c-0.487-0.903-0.889-1.874-1.193-2.885l-0.158-0.535l-3.392-0.804V17.25l3.392-0.808l0.158-0.533
		c0.304-1.012,0.706-1.982,1.193-2.888l0.263-0.489l-1.826-2.963l4.384-4.383l2.962,1.826l0.491-0.263
		c0.902-0.487,1.873-0.888,2.886-1.19l0.534-0.163l0.805-3.389h6.196l0.808,3.391l0.533,0.161c1.012,0.302,1.982,0.703,2.887,1.19
		l0.49,0.266l2.963-1.826l4.383,4.382l-1.826,2.961l0.263,0.492c0.487,0.903,0.889,1.873,1.191,2.887l0.162,0.533l3.39,0.806V23.446
		z"/>
	<path display="inline" fill="#0071bc" d="M39.653,6.833c-7.453,0-13.514,6.061-13.514,13.514c0,7.453,6.061,13.514,13.514,13.514
		s13.514-6.061,13.514-13.514C53.167,12.894,47.106,6.833,39.653,6.833z M39.653,31.931c-6.388,0-11.584-5.196-11.584-11.584
		S33.266,8.764,39.653,8.764s11.583,5.195,11.583,11.583S46.041,31.931,39.653,31.931z"/>
	<path display="inline" fill="#0071bc" d="M30,19.382h1.931v1.931H30V19.382z"/>
	<path display="inline" fill="#0071bc" d="M33.862,19.382h15.444v1.931H33.862V19.382z"/>
	<path display="inline" fill="#0071bc" d="M35.791,23.242h11.585v1.931H35.791V23.242z"/>
	<path display="inline" fill="#0071bc" d="M31.931,23.242h1.932v1.931h-1.932V23.242z"/>
	<path display="inline" fill="#0071bc" d="M35.791,15.52h11.585v1.931H35.791V15.52z"/>
	<path display="inline" fill="#0071bc" d="M31.931,15.52h1.932v1.931h-1.932V15.52z"/>
	<path display="inline" fill="#0071bc" d="M21.313,32.896H15.52v5.791h-1.931V25.173H7.797v13.513H5.866v-18.34H3.938v20.271h19.305
		v-1.932h-1.929V32.896z M17.451,34.827h1.931v3.859h-1.931V34.827z M9.729,27.104h1.931v11.582H9.729V27.104z"/>
</g>
<g display="none">
	<g display="inline">
		<path fill="#0071bc" d="M40.476,49.788c-2.804,0-4.983,2.302-4.983,5.105c0,2.805,2.302,5.106,4.983,5.106
			s4.983-2.302,4.983-5.106C45.459,52.09,43.157,49.788,40.476,49.788z M40.476,57.44c-1.408,0-2.425-1.15-2.425-2.559
			s1.151-2.56,2.425-2.56s2.425,1.151,2.425,2.56S41.749,57.44,40.476,57.44z"/>
		<path fill="#0071bc" d="M13.28,49.788c-2.804,0-4.984,2.302-4.984,5.105c0,2.805,2.302,5.106,4.984,5.106
			c2.804,0,4.983-2.302,4.983-5.106C18.263,52.09,15.961,49.788,13.28,49.788z M13.28,57.44c-1.408,0-2.425-1.15-2.425-2.559
			s1.151-2.56,2.425-2.56c1.408,0,2.424,1.151,2.424,2.56C15.704,56.302,14.565,57.44,13.28,57.44z"/>
		<path fill="#0071bc" d="M52.476,0l-1.983,7.788H0.386L9.63,35.18c-3.098,0.453-5.412,3.073-5.412,6.44
			c0,3.698,2.804,6.637,6.38,6.637h34.726v-2.424H10.598c-2.167,0-3.833-1.788-3.833-4.09c0-2.303,1.788-4.09,3.833-4.09h34.726
			h0.123l9.061-35.106h5.106V0H52.476z M43.537,35.106H12.263L3.961,10.334h45.833L43.537,35.106z"/>
		<rect x="16.598" y="16.334" fill="#0071bc" width="2.559" height="14.425"/>
		<rect x="25.671" y="16.334" fill="#0071bc" width="2.559" height="14.425"/>
		<rect x="34.732" y="16.334" fill="#0071bc" width="2.56" height="14.425"/>
	</g>
</g>
<g display="none">
	<path display="inline" fill="#0071bc" d="M56.191,39.144c0.459-1.987,0.705-4.013,0.705-6.04c0-9.408-4.791-17.977-12.816-22.917
		c-0.489-0.3-1.124-0.148-1.424,0.338c-0.299,0.487-0.147,1.124,0.339,1.423c7.409,4.562,11.833,12.47,11.833,21.155
		c0,1.785-0.207,3.57-0.594,5.324c-0.477-0.1-0.97-0.152-1.476-0.152c-3.993,0-7.241,3.25-7.241,7.242s3.248,7.241,7.241,7.241
		S60,49.51,60,45.518C60,42.767,58.457,40.369,56.191,39.144z M52.759,50.689c-2.853,0-5.173-2.32-5.173-5.172
		c0-2.853,2.32-5.173,5.173-5.173s5.173,2.32,5.173,5.173C57.932,48.369,55.611,50.689,52.759,50.689z"/>
	<path display="inline" fill="#0071bc" d="M39.487,56.051c-3.016,1.247-6.207,1.881-9.487,1.881c-6.605,0-12.959-2.664-17.604-7.337
		c1.289-1.31,2.087-3.101,2.087-5.077c0-3.992-3.249-7.242-7.242-7.242S0,41.525,0,45.518s3.248,7.241,7.241,7.241
		c1.269,0,2.46-0.33,3.498-0.905C15.786,57.037,22.752,60,30,60c3.553,0,7.012-0.686,10.279-2.039
		c0.527-0.219,0.778-0.823,0.561-1.352C40.621,56.082,40.015,55.832,39.487,56.051z M2.069,45.518c0-2.853,2.32-5.173,5.172-5.173
		s5.172,2.32,5.172,5.173c0,2.852-2.32,5.172-5.172,5.172S2.069,48.369,2.069,45.518z"/>
	<path display="inline" fill="#0071bc" d="M4.138,32.289c0.025,0.002,0.05,0.004,0.074,0.004c0.539,0,0.992-0.416,1.031-0.963
		C5.979,20.894,13.09,12.172,23.057,9.281c0.883,3.002,3.658,5.202,6.943,5.202c3.993,0,7.241-3.25,7.241-7.242
		C37.241,3.25,33.993,0,30,0c-3.984,0-7.227,3.235-7.24,7.215C11.814,10.264,3.984,19.779,3.179,31.186
		C3.139,31.754,3.568,32.25,4.138,32.289z M30,2.069c2.852,0,5.172,2.32,5.172,5.172s-2.32,5.172-5.172,5.172
		s-5.172-2.32-5.172-5.172S27.148,2.069,30,2.069z"/>
</g>
<g display="none">
	<g display="inline">
		<g>
			<path fill="#0071bc" d="M59.62,55.29c-0.96-6.23-3.87-11.97-8.41-16.5c-3.26-3.271-7.15-5.69-11.4-7.15
				c4.551-3.13,7.53-8.37,7.53-14.3C47.34,7.78,39.56,0,30,0c-9.56,0-17.34,7.78-17.34,17.34c0,5.93,2.98,11.17,7.53,14.3
				c-4.25,1.46-8.14,3.88-11.4,7.15c-4.54,4.53-7.45,10.27-8.41,16.5C0.26,56,0.17,56.71,0.12,57.43v2.551h4.57
				c0-1.601,0.15-3.171,0.45-4.69c2.2-11.72,12.51-20.6,24.86-20.6c12.35,0,22.66,8.88,24.86,20.6c0.3,1.52,0.449,3.09,0.449,4.69
				c0,0.01,0,0.01,0,0.02H60c0-0.01,0-0.01,0-0.02C60,58.39,59.88,56.83,59.62,55.29z M30,30c-6.98,0-12.66-5.68-12.66-12.66
				c0-6.97,5.68-12.65,12.66-12.65c6.98,0,12.66,5.68,12.66,12.65C42.66,24.32,36.98,30,30,30z"/>
		</g>
	</g>
	<path display="inline" fill="none" d="M60.12,55.29v4.69H60c0-1.591-0.12-3.15-0.38-4.69H60.12z"/>
	<path display="inline" fill="none" d="M0.38,55.29C0.26,56,0.17,56.71,0.12,57.43v-2.14H0.38z"/>
	<path display="inline" fill="none" d="M4.69,59.98c0,0.01,0,0.01,0,0.02H0c0-0.86,0.04-1.72,0.12-2.57v2.551H4.69z"/>
	<path display="inline" fill="#0071bc" d="M60,59.98H0.12V57.43c0.05-0.72,0.14-1.43,0.26-2.14h59.24C59.88,56.83,60,58.39,60,59.98
		z"/>
</g>
<g>
	<path fill="#0071bc" d="M45.525,0H14.475c-2.095,0-3.799,1.704-3.799,3.799v52.402c0,2.095,1.704,3.799,3.799,3.799h31.051
		c2.095,0,3.799-1.704,3.799-3.799V3.799C49.324,1.704,47.62,0,45.525,0z M12.58,9.547h34.841v39.681H12.58V9.547z M14.475,1.903
		h31.051c1.045,0,1.896,0.851,1.896,1.896v4.479H12.58V3.799C12.58,2.754,13.43,1.903,14.475,1.903z M45.525,58.097H14.475
		c-1.045,0-1.896-0.851-1.896-1.896v-5.705H47.42v5.705C47.42,57.246,46.57,58.097,45.525,58.097z"/>
	<path fill="#0071bc" d="M30,51.338c-1.719,0-3.117,1.398-3.117,3.117s1.398,3.117,3.117,3.117s3.117-1.398,3.117-3.117
		S31.719,51.338,30,51.338z M30,56.303c-1.02,0-1.848-0.828-1.848-1.848S28.98,52.607,30,52.607s1.848,0.828,1.848,1.848
		S31.02,56.303,30,56.303z"/>
	<path fill="#0071bc" d="M25.686,6.047h8.629c0.351,0,0.635-0.285,0.635-0.635c0-0.351-0.284-0.635-0.635-0.635h-8.629
		c-0.351,0-0.635,0.284-0.635,0.635C25.051,5.762,25.335,6.047,25.686,6.047z"/>
	<path fill="#0071bc" d="M23.401,6.047c0.167,0,0.33-0.068,0.448-0.186c0.118-0.119,0.187-0.282,0.187-0.449
		c0-0.168-0.068-0.33-0.187-0.449s-0.281-0.186-0.448-0.186s-0.329,0.066-0.449,0.186c-0.118,0.117-0.185,0.281-0.185,0.449
		c0,0.167,0.066,0.33,0.185,0.449C23.07,5.979,23.234,6.047,23.401,6.047z"/>
</g>
</svg>
