<?xml version="1.0" encoding="utf-8"?>
<!-- Generator: Adobe Illustrator 15.0.0, SVG Export Plug-In . SVG Version: 6.00 Build 0)  -->
<!DOCTYPE svg PUBLIC "-//W3C//DTD SVG 1.1//EN" "http://www.w3.org/Graphics/SVG/1.1/DTD/svg11.dtd">
<svg version="1.1" id="Layer_1" xmlns="http://www.w3.org/2000/svg" xmlns:xlink="http://www.w3.org/1999/xlink" x="0px" y="0px"
	 width="60px" height="60px" viewBox="0 0 60 60" enable-background="new 0 0 60 60" xml:space="preserve">
<g display="none">
	<g display="inline">
		<g>
			<path fill="#F05540" d="M57.082,3.786h-9.766c-0.484,0-0.879,0.393-0.879,0.877c0,0.485,0.395,0.877,0.879,0.877h9.766
				c0.607,0,1.1,0.492,1.1,1.098v32.744H14.391V5.54h28.932c0.48,0,0.875-0.392,0.875-0.877c0-0.484-0.395-0.877-0.875-0.877H2.916
				c-1.571,0-2.85,1.279-2.85,2.852v37.739c0,2.101,1.708,3.809,3.809,3.809H15.84c0.485,0,0.876-0.391,0.876-0.879
				c0-0.481-0.391-0.874-0.876-0.874H3.875c-1.132,0-2.055-0.921-2.055-2.056v-3.238h56.362v3.238c0,1.135-0.924,2.056-2.055,2.056
				H19.838c-0.485,0-0.876,0.393-0.876,0.874c0,0.488,0.392,0.879,0.876,0.879h5.188c-0.037,0.114-0.077,0.226-0.118,0.333
				c-0.65,1.721-1.621,2.904-2.888,3.515c-0.758,0.364-1.229,1.11-1.229,1.936v0.106c0,1.186,0.959,2.139,2.138,2.139h6.712
				c0.485,0,0.876-0.393,0.876-0.874c0-0.488-0.392-0.879-0.876-0.879h-6.712c-0.212,0-0.386-0.171-0.386-0.386v-0.106
				c0-0.146,0.091-0.284,0.238-0.354c1.685-0.815,2.953-2.32,3.77-4.476c0.116-0.306,0.22-0.627,0.316-0.954h6.271
				c0.094,0.327,0.201,0.648,0.316,0.954c0.814,2.155,2.082,3.66,3.768,4.476c0.146,0.069,0.238,0.207,0.238,0.354v0.106
				c0,0.215-0.172,0.386-0.387,0.386h-3.438c-0.484,0-0.877,0.391-0.877,0.879c0,0.481,0.393,0.874,0.877,0.874h3.438
				c1.18,0,2.139-0.953,2.139-2.139v-0.106c0-0.825-0.469-1.571-1.227-1.936c-1.268-0.61-2.24-1.794-2.893-3.515
				c-0.039-0.107-0.08-0.219-0.117-0.333h21.152c2.1,0,3.807-1.708,3.807-3.809V6.638C59.934,5.065,58.656,3.786,57.082,3.786z
				 M12.636,39.382H1.82V6.638c0-0.605,0.492-1.098,1.096-1.098h9.72V39.382z"/>
		</g>
	</g>
	<g display="inline">
		<g>
			<path fill="#F05540" d="M54.193,9.899h-3.877c-0.883,0-1.602,0.718-1.602,1.603v23.833c0,0.482,0.395,0.879,0.877,0.879h5.326
				c0.484,0,0.879-0.396,0.879-0.879V11.502C55.797,10.617,55.076,9.899,54.193,9.899z M54.041,34.457h-3.572l0,0V14.76h3.572
				V34.457z M54.041,13.008h-3.572v-1.354h3.572V13.008z"/>
		</g>
	</g>
	<g display="inline">
		<g>
			<path fill="#F05540" d="M52.539,15.961h-0.566c-0.484,0-0.875,0.391-0.875,0.876s0.391,0.876,0.875,0.876h0.566
				c0.482,0,0.875-0.391,0.875-0.876S53.021,15.961,52.539,15.961z"/>
		</g>
	</g>
	<g display="inline">
		<g>
			<path fill="#F05540" d="M52.539,18.985h-0.566c-0.484,0-0.875,0.395-0.875,0.876c0,0.485,0.391,0.877,0.875,0.877h0.566
				c0.482,0,0.875-0.392,0.875-0.877C53.414,19.38,53.021,18.985,52.539,18.985z"/>
		</g>
	</g>
	<g display="inline">
		<g>
			<path fill="#F05540" d="M52.539,22.011h-0.566c-0.484,0-0.875,0.394-0.875,0.879c0,0.482,0.391,0.876,0.875,0.876h0.566
				c0.482,0,0.875-0.394,0.875-0.876C53.414,22.404,53.021,22.011,52.539,22.011z"/>
		</g>
	</g>
	<g display="inline">
		<g>
			<path fill="#F05540" d="M52.539,25.039h-0.566c-0.484,0-0.875,0.391-0.875,0.876c0,0.484,0.391,0.876,0.875,0.876h0.566
				c0.482,0,0.875-0.392,0.875-0.876C53.414,25.43,53.021,25.039,52.539,25.039z"/>
		</g>
	</g>
	<g display="inline">
		<g>
			<path fill="#F05540" d="M52.539,28.063h-0.566c-0.484,0-0.875,0.395-0.875,0.877c0,0.484,0.391,0.878,0.875,0.878h0.566
				c0.482,0,0.875-0.394,0.875-0.878C53.414,28.458,53.021,28.063,52.539,28.063z"/>
		</g>
	</g>
	<g display="inline">
		<g>
			<path fill="#F05540" d="M52.539,31.091h-0.566c-0.484,0-0.875,0.391-0.875,0.879c0,0.481,0.391,0.874,0.875,0.874h0.566
				c0.482,0,0.875-0.393,0.875-0.874C53.414,31.481,53.021,31.091,52.539,31.091z"/>
		</g>
	</g>
	<g display="inline">
		<g>
			<path fill="#F05540" d="M6.084,11.113H4.857c-0.484,0-0.876,0.394-0.876,0.879c0,0.482,0.393,0.876,0.876,0.876h1.227
				c0.484,0,0.876-0.394,0.876-0.876C6.96,11.507,6.568,11.113,6.084,11.113z"/>
		</g>
	</g>
	<g display="inline">
		<g>
			<path fill="#F05540" d="M9.6,14.214H4.857c-0.484,0-0.876,0.391-0.876,0.876s0.393,0.879,0.876,0.879H9.6
				c0.482,0,0.876-0.394,0.876-0.879S10.082,14.214,9.6,14.214z"/>
		</g>
	</g>
	<g display="inline">
		<g>
			<path fill="#F05540" d="M9.597,16.352h-4.74c-0.484,0-0.876,0.395-0.876,0.877c0,0.484,0.393,0.878,0.876,0.878H9.6
				c0.482,0,0.876-0.394,0.876-0.878C10.476,16.746,10.082,16.352,9.597,16.352z"/>
		</g>
	</g>
	<g display="inline">
		<g>
			<path fill="#F05540" d="M9.597,18.49h-4.74c-0.484,0-0.876,0.394-0.876,0.879c0,0.482,0.393,0.876,0.876,0.876H9.6
				c0.482,0,0.876-0.394,0.876-0.876C10.476,18.884,10.082,18.49,9.597,18.49z"/>
		</g>
	</g>
	<g display="inline">
		<g>
			<path fill="#F05540" d="M6.084,24.149H4.857c-0.484,0-0.876,0.394-0.876,0.879c0,0.482,0.393,0.876,0.876,0.876h1.227
				c0.484,0,0.876-0.394,0.876-0.876C6.96,24.543,6.568,24.149,6.084,24.149z"/>
		</g>
	</g>
	<g display="inline">
		<g>
			<path fill="#F05540" d="M9.597,27.249h-4.74c-0.484,0-0.876,0.392-0.876,0.876c0,0.485,0.393,0.879,0.876,0.879H9.6
				c0.482,0,0.876-0.394,0.876-0.879C10.476,27.641,10.082,27.249,9.597,27.249z"/>
		</g>
	</g>
	<g display="inline">
		<g>
			<path fill="#F05540" d="M9.597,29.388h-4.74c-0.484,0-0.876,0.391-0.876,0.878c0,0.481,0.393,0.874,0.876,0.874H9.6
				c0.482,0,0.876-0.393,0.876-0.874C10.476,29.778,10.082,29.388,9.597,29.388z"/>
		</g>
	</g>
	<g display="inline">
		<g>
			<path fill="#F05540" d="M9.597,31.524h-4.74c-0.484,0-0.876,0.393-0.876,0.878c0,0.484,0.393,0.881,0.876,0.881H9.6
				c0.482,0,0.876-0.396,0.876-0.881C10.476,31.917,10.082,31.524,9.597,31.524z"/>
		</g>
	</g>
	<g display="inline">
		<g>
			<path fill="#F05540" d="M45.414,21.885l-4.385-2.658c-0.002-0.002-0.002-0.002-0.004-0.005l-4.611-2.798H36.41l-4.361-2.647
				c-0.279-0.168-0.631-0.168-0.908,0l-4.363,2.647c-0.002,0-0.002,0-0.002,0.003l-4.609,2.795
				c-0.002,0.003-0.005,0.003-0.008,0.005l-4.384,2.658c-0.262,0.158-0.42,0.442-0.42,0.75c0,0.306,0.158,0.59,0.42,0.751
				l13.366,8.105c0.139,0.088,0.297,0.131,0.455,0.131c0.156,0,0.313-0.043,0.453-0.131l13.365-8.105
				c0.262-0.161,0.42-0.445,0.42-0.751C45.834,22.327,45.676,22.043,45.414,21.885z M38.893,19.979l-2.682,1.63l-2.924-1.774
				l2.682-1.626L38.893,19.979z M34.52,22.635l-2.924,1.771l-2.924-1.771l2.924-1.773L34.52,22.635z M31.596,15.553l2.684,1.63
				l-2.684,1.626l-2.685-1.626L31.596,15.553z M27.22,18.209l2.682,1.626l-2.92,1.774l-2.685-1.63L27.22,18.209z M19.921,22.635
				l2.685-1.629l2.682,1.629l-2.682,1.627L19.921,22.635z M24.297,25.288l2.685-1.627l2.92,1.771l-2.682,1.629L24.297,25.288z
				 M31.596,29.717l-2.685-1.629l2.685-1.629l2.684,1.629L31.596,29.717z M35.969,27.062l-2.682-1.629l2.92-1.771l2.686,1.627
				L35.969,27.062z M40.586,24.262L37.9,22.635l2.686-1.629l2.682,1.629L40.586,24.262z"/>
		</g>
	</g>
	<g display="inline">
		<g>
			<path fill="#F05540" d="M38.684,29.64h-0.791c-0.482,0-0.877,0.39-0.877,0.878c0,0.482,0.395,0.879,0.877,0.879h0.791
				c0.484,0,0.877-0.396,0.877-0.879C39.561,30.029,39.168,29.64,38.684,29.64z"/>
		</g>
	</g>
	<g display="inline">
		<g>
			<path fill="#F05540" d="M42.863,31.889h-4.971c-0.482,0-0.877,0.396-0.877,0.88c0,0.482,0.395,0.873,0.877,0.873h4.971
				c0.482,0,0.877-0.391,0.877-0.873C43.74,32.285,43.346,31.889,42.863,31.889z"/>
		</g>
	</g>
</g>
<g>
	<path fill="#F05540" d="M30,0C13.458,0,0,13.458,0,30c0,16.543,13.458,30,30,30c16.543,0,30-13.457,30-30C60,13.458,46.543,0,30,0z
		 M30,58C14.561,58,2,45.439,2,30S14.561,2,30,2s28,12.561,28,28S45.439,58,30,58z"/>
	<path fill="#F05540" d="M31,26.021V15.879c0-0.553-0.447-1-1-1c-0.552,0-1,0.447-1,1v10.143c-1.398,0.363-2.494,1.459-2.857,2.857
		H19c-0.552,0-1,0.447-1,1s0.448,1,1,1h7.143c0.446,1.721,2,3,3.857,3c2.207,0,4-1.793,4-4C34,28.02,32.721,26.468,31,26.021z
		 M30,31.879c-1.104,0-2-0.896-2-2s0.896-2,2-2s2,0.896,2,2S31.104,31.879,30,31.879z"/>
	<path fill="#F05540" d="M30,9.879c0.553,0,1-0.447,1-1v-1c0-0.553-0.447-1-1-1c-0.552,0-1,0.447-1,1v1
		C29,9.432,29.448,9.879,30,9.879z"/>
	<path fill="#F05540" d="M30,49.879c-0.552,0-1,0.447-1,1v1c0,0.553,0.448,1,1,1c0.553,0,1-0.447,1-1v-1
		C31,50.326,30.553,49.879,30,49.879z"/>
	<path fill="#F05540" d="M52,28.879h-1c-0.551,0-1,0.447-1,1s0.449,1,1,1h1c0.553,0,1-0.447,1-1S52.553,28.879,52,28.879z"/>
	<path fill="#F05540" d="M9,28.879H8c-0.552,0-1,0.447-1,1s0.448,1,1,1h1c0.552,0,1-0.447,1-1S9.552,28.879,9,28.879z"/>
	<path fill="#F05540" d="M44.85,13.615l-0.707,0.707c-0.391,0.391-0.391,1.023,0,1.414c0.195,0.195,0.451,0.293,0.707,0.293
		s0.512-0.098,0.707-0.293l0.707-0.707c0.391-0.391,0.391-1.023,0-1.414S45.24,13.225,44.85,13.615z"/>
	<path fill="#F05540" d="M14.443,44.021l-0.707,0.707c-0.391,0.391-0.391,1.023,0,1.414c0.195,0.195,0.451,0.293,0.707,0.293
		c0.257,0,0.513-0.098,0.707-0.293l0.707-0.707c0.392-0.391,0.392-1.023,0-1.414C15.467,43.631,14.834,43.631,14.443,44.021z"/>
	<path fill="#F05540" d="M45.557,44.021c-0.391-0.391-1.023-0.391-1.414,0s-0.391,1.023,0,1.414l0.707,0.707
		c0.195,0.195,0.451,0.293,0.707,0.293s0.512-0.098,0.707-0.293c0.391-0.391,0.391-1.023,0-1.414L45.557,44.021z"/>
	<path fill="#F05540" d="M15.15,13.615c-0.391-0.391-1.022-0.391-1.414,0c-0.391,0.391-0.391,1.023,0,1.414l0.707,0.707
		c0.195,0.195,0.451,0.293,0.707,0.293c0.257,0,0.513-0.098,0.707-0.293c0.392-0.391,0.392-1.023,0-1.414L15.15,13.615z"/>
</g>
<g display="none">
	<path display="inline" fill="#010101" d="M28.23,3.809c-7.505,0-14.561,2.923-19.868,8.229C3.057,17.345,0.134,24.4,0.134,31.904
		c0,7.506,2.922,14.561,8.229,19.867C13.67,57.078,20.725,60,28.23,60c0.676,0,1.225-0.549,1.225-1.225V5.034
		C29.455,4.357,28.906,3.809,28.23,3.809z M27.006,57.521C13.431,56.881,2.583,45.635,2.583,31.904S13.431,6.929,27.006,6.287
		V57.521z"/>
	<path display="inline" fill="#010101" d="M35.084,25.738c0.211,0.154,0.464,0.234,0.719,0.234c0.127,0,0.255-0.02,0.379-0.061
		l22.373-7.27c0.309-0.1,0.564-0.318,0.713-0.608c0.146-0.289,0.174-0.625,0.072-0.935C55.963,6.712,46.725,0,35.803,0
		c-0.676,0-1.225,0.548-1.225,1.225v23.523C34.578,25.141,34.766,25.508,35.084,25.738z M37.027,2.48
		c8.897,0.458,16.389,5.901,19.576,14.222l-19.576,6.36V2.48L37.027,2.48z"/>
	<path display="inline" fill="#010101" d="M58.617,26.409c-0.209-0.644-0.9-0.995-1.543-0.786L34.248,33.04
		c-0.504,0.164-0.846,0.634-0.846,1.165v24c0,0.676,0.549,1.225,1.225,1.225c12.44,0,19.418-7.771,22.477-13.773
		C60.164,39.652,60.701,32.816,58.617,26.409z M54.922,44.544c-2.762,5.421-8.936,11.604-19.07,12.409V35.094l20.785-6.753
		C58.094,33.779,57.498,39.488,54.922,44.544z"/>
</g>
</svg>
