<?xml version="1.0" encoding="UTF-8" standalone="no"?> <svg width="64" height="64" viewBox="0 0 64 64" fill="none" xmlns="http://www.w3.org/2000/svg">
<path d="M3 16C3.26522 16 3.51957 15.8946 3.70711 15.7071C3.89464 15.5196 4 15.2652 4 15C4.00344 12.0837 5.16347 9.28778 7.22563 7.22563C9.28778 5.16347 12.0837 4.00344 15 4C15.2652 4 15.5196 3.89464 15.7071 3.70711C15.8946 3.51957 16 3.26522 16 3C16 2.73478 15.8946 2.48043 15.7071 2.29289C15.5196 2.10536 15.2652 2 15 2C11.5534 2.00397 8.24911 3.37488 5.812 5.812C3.37488 8.24911 2.00397 11.5534 2 15C2 15.2652 2.10536 15.5196 2.29289 15.7071C2.48043 15.8946 2.73478 16 3 16Z" fill="#0871bc"/>
<path d="M15 12C15.2652 12 15.5196 11.8946 15.7071 11.7071C15.8946 11.5196 16 11.2652 16 11C16 10.7348 15.8946 10.4804 15.7071 10.2929C15.5196 10.1054 15.2652 10 15 10C13.6744 10.0016 12.4036 10.5289 11.4662 11.4662C10.5289 12.4036 10.0016 13.6744 10 15C10 15.2652 10.1054 15.5196 10.2929 15.7071C10.4804 15.8946 10.7348 16 11 16C11.2652 16 11.5196 15.8946 11.7071 15.7071C11.8946 15.5196 12 15.2652 12 15C12 14.2044 12.3161 13.4413 12.8787 12.8787C13.4413 12.3161 14.2044 12 15 12V12Z" fill="#0871bc"/>
<path d="M8 15C8.00212 13.1441 8.7403 11.3649 10.0526 10.0526C11.3649 8.7403 13.1441 8.00212 15 8C15.2652 8 15.5196 7.89464 15.7071 7.70711C15.8946 7.51957 16 7.26522 16 7C16 6.73478 15.8946 6.48043 15.7071 6.29289C15.5196 6.10536 15.2652 6 15 6C12.6139 6.00265 10.3262 6.95171 8.63896 8.63896C6.95171 10.3262 6.00265 12.6139 6 15C6 15.2652 6.10536 15.5196 6.29289 15.7071C6.48043 15.8946 6.73478 16 7 16C7.26522 16 7.51957 15.8946 7.70711 15.7071C7.89464 15.5196 8 15.2652 8 15Z" fill="#0871bc"/>
<path d="M52 59H58C58.2652 59 58.5196 58.8946 58.7071 58.7071C58.8946 58.5196 59 58.2652 59 58C59 57.7348 58.8946 57.4804 58.7071 57.2929C58.5196 57.1054 58.2652 57 58 57H52C51.7348 57 51.4804 57.1054 51.2929 57.2929C51.1054 57.4804 51 57.7348 51 58C51 58.2652 51.1054 58.5196 51.2929 58.7071C51.4804 58.8946 51.7348 59 52 59Z" fill="#0871bc"/>
<path d="M48 59H49C49.2652 59 49.5196 58.8946 49.7071 58.7071C49.8946 58.5196 50 58.2652 50 58C50 57.7348 49.8946 57.4804 49.7071 57.2929C49.5196 57.1054 49.2652 57 49 57H48C47.7348 57 47.4804 57.1054 47.2929 57.2929C47.1054 57.4804 47 57.7348 47 58C47 58.2652 47.1054 58.5196 47.2929 58.7071C47.4804 58.8946 47.7348 59 48 59Z" fill="#0871bc"/>
<path d="M49 51H48C47.7348 51 47.4804 51.1054 47.2929 51.2929C47.1054 51.4804 47 51.7348 47 52C47 52.2652 47.1054 52.5196 47.2929 52.7071C47.4804 52.8946 47.7348 53 48 53H49C49.2652 53 49.5196 52.8946 49.7071 52.7071C49.8946 52.5196 50 52.2652 50 52C50 51.7348 49.8946 51.4804 49.7071 51.2929C49.5196 51.1054 49.2652 51 49 51Z" fill="#0871bc"/>
<path d="M58 51H52C51.7348 51 51.4804 51.1054 51.2929 51.2929C51.1054 51.4804 51 51.7348 51 52C51 52.2652 51.1054 52.5196 51.2929 52.7071C51.4804 52.8946 51.7348 53 52 53H58C58.2652 53 58.5196 52.8946 58.7071 52.7071C58.8946 52.5196 59 52.2652 59 52C59 51.7348 58.8946 51.4804 58.7071 51.2929C58.5196 51.1054 58.2652 51 58 51Z" fill="#0871bc"/>
<path d="M61 48H45C44.7348 48 44.4804 48.1054 44.2929 48.2929C44.1054 48.4804 44 48.7348 44 49V61C44 61.2652 44.1054 61.5196 44.2929 61.7071C44.4804 61.8946 44.7348 62 45 62H61C61.2652 62 61.5196 61.8946 61.7071 61.7071C61.8946 61.5196 62 61.2652 62 61V49C62 48.7348 61.8946 48.4804 61.7071 48.2929C61.5196 48.1054 61.2652 48 61 48ZM60 60H46V56H60V60ZM60 54H46V50H60V54Z" fill="#0871bc"/>
<path d="M32 50C35.5601 50 39.0402 48.9443 42.0003 46.9665C44.9603 44.9886 47.2675 42.1774 48.6298 38.8883C49.9922 35.5992 50.3487 31.98 49.6541 28.4884C48.9596 24.9967 47.2453 21.7894 44.7279 19.2721C42.2106 16.7547 39.0033 15.0404 35.5116 14.3459C32.02 13.6513 28.4008 14.0078 25.1117 15.3702C21.8226 16.7326 19.0114 19.0397 17.0335 21.9997C15.0557 24.9598 14 28.4399 14 32C14.0056 36.7722 15.9038 41.3473 19.2782 44.7218C22.6527 48.0962 27.2278 49.9944 32 50V50ZM31 38.033C28.626 38.101 26.2706 38.4744 23.992 39.144C23.4221 37.1429 23.099 35.0796 23.03 33H31V38.033ZM31 40.033V47.89C28.395 47.35 26.089 44.74 24.63 41.037C26.7027 40.4357 28.8429 40.098 31 40.032V40.033ZM33 47.89V40.032C35.1569 40.0964 37.2971 40.4323 39.37 41.032C37.911 44.739 35.6 47.349 33 47.889V47.89ZM33 38.034V33H40.97C40.901 35.0796 40.5779 37.1429 40.008 39.144C37.7294 38.4744 35.374 38.101 33 38.033V38.034ZM42.97 33H47.949C47.7649 36.0115 46.7267 38.9082 44.956 41.351C43.996 40.7503 42.9835 40.2379 41.931 39.82C42.5577 37.5983 42.9067 35.3075 42.97 33V33ZM42.97 31C42.9067 28.6925 42.5577 26.4017 41.931 24.18C42.9835 23.7621 43.996 23.2497 44.956 22.649C46.7267 25.0919 47.7649 27.9885 47.949 31H42.97ZM40.97 31H33V25.967C35.374 25.899 37.7294 25.5256 40.008 24.856C40.5779 26.8571 40.901 28.9205 40.97 31V31ZM33 23.968V16.111C35.6 16.651 37.911 19.261 39.37 22.964C37.2973 23.565 35.1571 23.9024 33 23.968ZM31 16.111V23.968C28.8431 23.9037 26.7029 23.5677 24.63 22.968C26.089 19.261 28.4 16.651 31 16.111ZM31 25.967V31H23.03C23.099 28.9205 23.4221 26.8571 23.992 24.856C26.2706 25.5256 28.626 25.899 31 25.967V25.967ZM21.03 31H16.051C16.2351 27.9885 17.2733 25.0919 19.044 22.649C20.004 23.2497 21.0165 23.7621 22.069 24.18C21.4423 26.4017 21.0933 28.6925 21.03 31V31ZM21.03 33C21.0933 35.3075 21.4423 37.5983 22.069 39.82C21.0165 40.2379 20.004 40.7503 19.044 41.351C17.2733 38.9082 16.2351 36.0115 16.051 33H21.03ZM20.324 42.9C21.084 42.4444 21.8784 42.0489 22.7 41.717C23.3599 43.4963 24.3131 45.1525 25.52 46.617C23.5563 45.739 21.7892 44.4749 20.324 42.9V42.9ZM38.478 46.613C39.6849 45.1485 40.6381 43.4923 41.298 41.713C42.1204 42.046 42.9155 42.4429 43.676 42.9C42.2102 44.4751 40.4424 45.7392 38.478 46.617V46.613ZM43.678 21.092C42.9176 21.5505 42.1225 21.9487 41.3 22.283C40.6401 20.5037 39.6869 18.8475 38.48 17.383C40.4437 18.261 42.2108 19.5251 43.676 21.1L43.678 21.092ZM25.522 17.383C24.3151 18.8475 23.3619 20.5037 22.702 22.283C21.8797 21.9513 21.0846 21.5557 20.324 21.1C21.7898 19.5249 23.5576 18.2608 25.522 17.383V17.383Z" fill="#0871bc"/>
<path d="M57 6.00002C56.88 6.00002 56.77 6.00002 56.66 6.01002C56.2477 4.83804 55.4818 3.82294 54.468 3.10485C53.4541 2.38676 52.2424 2.0011 51 2.0011C49.7576 2.0011 48.5459 2.38676 47.532 3.10485C46.5182 3.82294 45.7523 4.83804 45.34 6.01002C45.23 6.00002 45.12 6.00002 45 6.00002C43.6739 6.00002 42.4021 6.5268 41.4645 7.46448C40.5268 8.40217 40 9.67394 40 11C40 12.3261 40.5268 13.5979 41.4645 14.5356C42.4021 15.4732 43.6739 16 45 16H57C58.3261 16 59.5979 15.4732 60.5355 14.5356C61.4732 13.5979 62 12.3261 62 11C62 9.67394 61.4732 8.40217 60.5355 7.46448C59.5979 6.5268 58.3261 6.00002 57 6.00002ZM57 14H45C44.2044 14 43.4413 13.6839 42.8787 13.1213C42.3161 12.5587 42 11.7957 42 11C42 10.2044 42.3161 9.44131 42.8787 8.8787C43.4413 8.31609 44.2044 8.00002 45 8.00002C45.2704 8.00013 45.5396 8.03714 45.8 8.11002C45.9351 8.14977 46.0772 8.16052 46.2168 8.14156C46.3563 8.12261 46.4904 8.07437 46.61 8.00002C46.7296 7.92477 46.8323 7.82546 46.9115 7.70839C46.9907 7.59133 47.0447 7.45907 47.07 7.32002C47.2273 6.39153 47.7083 5.54872 48.4276 4.94098C49.147 4.33324 50.0583 3.99982 51 3.99982C51.9417 3.99982 52.853 4.33324 53.5724 4.94098C54.2917 5.54872 54.7727 6.39153 54.93 7.32002C54.9553 7.45907 55.0093 7.59133 55.0885 7.70839C55.1677 7.82546 55.2704 7.92477 55.39 8.00002C55.5096 8.07437 55.6437 8.12261 55.7832 8.14156C55.9228 8.16052 56.0649 8.14977 56.2 8.11002C56.4604 8.03714 56.7296 8.00013 57 8.00002C57.7956 8.00002 58.5587 8.31609 59.1213 8.8787C59.6839 9.44131 60 10.2044 60 11C60 11.7957 59.6839 12.5587 59.1213 13.1213C58.5587 13.6839 57.7956 14 57 14V14Z" fill="#0871bc"/>
<path d="M20.03 12.194C20.2055 12.194 20.378 12.1478 20.53 12.06C25.4634 9.23038 31.2677 8.32128 36.83 9.50702C36.9584 9.53446 37.091 9.53634 37.2202 9.51255C37.3493 9.48876 37.4725 9.43976 37.5828 9.36835C37.693 9.29695 37.7881 9.20453 37.8626 9.09637C37.9371 8.98822 37.9896 8.86645 38.017 8.73802C38.0444 8.60958 38.0463 8.477 38.0225 8.34784C37.9987 8.21868 37.9497 8.09548 37.8783 7.98525C37.8069 7.87503 37.7145 7.77995 37.6064 7.70544C37.4982 7.63094 37.3764 7.57846 37.248 7.55102C31.2022 6.2626 24.8936 7.25148 19.532 10.328C19.3414 10.4381 19.1924 10.608 19.1082 10.8114C19.0239 11.0147 19.0091 11.2402 19.0661 11.4528C19.1231 11.6655 19.2486 11.8534 19.4233 11.9874C19.5979 12.1214 19.8119 12.194 20.032 12.194H20.03Z" fill="#0871bc"/>
<path d="M51.514 46.011C51.7354 46.1565 52.0055 46.2082 52.265 46.1548C52.5245 46.1014 52.7521 45.9471 52.898 45.726C55.5479 41.6878 56.9724 36.969 56.9996 32.1391C57.0267 27.3092 55.6554 22.5747 53.051 18.507C52.9077 18.2837 52.6815 18.1265 52.4222 18.0699C52.1629 18.0134 51.8918 18.0621 51.6685 18.2055C51.4452 18.3488 51.288 18.575 51.2314 18.8343C51.1749 19.0936 51.2237 19.3647 51.367 19.588C53.7625 23.3297 55.0241 27.6846 54.9996 32.1274C54.9752 36.5702 53.6656 40.9109 51.229 44.626C51.0832 44.8475 51.0313 45.1178 51.0847 45.3775C51.1382 45.6372 51.2926 45.8651 51.514 46.011V46.011Z" fill="#0871bc"/>
<path d="M12.331 18.207C12.1079 18.0635 11.837 18.0145 11.5779 18.0708C11.3187 18.1271 11.0925 18.284 10.949 18.507C8.47218 22.3758 7.10806 26.8518 7.0061 31.4444C6.90415 36.037 8.0683 40.5691 10.371 44.544C10.4328 44.6648 10.5185 44.7717 10.6229 44.8583C10.7273 44.9449 10.8483 45.0093 10.9784 45.0477C11.1085 45.086 11.2451 45.0975 11.3798 45.0814C11.5144 45.0654 11.6445 45.022 11.7619 44.9541C11.8793 44.8862 11.9817 44.7951 12.0628 44.6864C12.1439 44.5777 12.202 44.4536 12.2337 44.3217C12.2653 44.1897 12.2697 44.0528 12.2468 43.9191C12.2238 43.7854 12.1739 43.6578 12.1 43.544C9.98221 39.8872 8.91169 35.718 9.0057 31.4932C9.09972 27.2685 10.3546 23.151 12.633 19.592C12.7044 19.4813 12.7533 19.3576 12.7767 19.228C12.8002 19.0984 12.7979 18.9655 12.7698 18.8368C12.7417 18.7081 12.6885 18.5862 12.6132 18.4781C12.5379 18.37 12.442 18.2779 12.331 18.207Z" fill="#0871bc"/>
<path d="M40.625 53.329C35.0887 55.5461 28.9113 55.5461 23.375 53.329C23.2524 53.2749 23.1203 53.2459 22.9864 53.2439C22.8524 53.2418 22.7194 53.2667 22.5953 53.3171C22.4712 53.3674 22.3584 53.4421 22.2637 53.5369C22.1691 53.6316 22.0944 53.7444 22.0441 53.8686C21.9939 53.9928 21.9691 54.1257 21.9712 54.2597C21.9733 54.3936 22.0023 54.5257 22.0565 54.6482C22.1107 54.7707 22.1889 54.8811 22.2866 54.9728C22.3842 55.0645 22.4993 55.1356 22.625 55.182C28.6399 57.606 35.36 57.606 41.375 55.182C41.5006 55.1356 41.6157 55.0645 41.7134 54.9728C41.811 54.8811 41.8893 54.7707 41.9434 54.6482C41.9976 54.5257 42.0266 54.3936 42.0288 54.2597C42.0309 54.1257 42.0061 53.9928 41.9558 53.8686C41.9056 53.7444 41.8309 53.6316 41.7362 53.5369C41.6415 53.4421 41.5288 53.3674 41.4046 53.3171C41.2805 53.2667 41.1475 53.2418 41.0136 53.2439C40.8797 53.2459 40.7475 53.2749 40.625 53.329V53.329Z" fill="#0871bc"/>
<path d="M17 47H5C4.20508 47.0024 3.4434 47.3192 2.8813 47.8813C2.31921 48.4434 2.00237 49.2051 2 50V56C2.00237 56.7949 2.31921 57.5566 2.8813 58.1187C3.4434 58.6808 4.20508 58.9976 5 59H7.61L7.28 60H6C5.73478 60 5.48043 60.1054 5.29289 60.2929C5.10536 60.4804 5 60.7348 5 61C5 61.2652 5.10536 61.5196 5.29289 61.7071C5.48043 61.8946 5.73478 62 6 62H16C16.2652 62 16.5196 61.8946 16.7071 61.7071C16.8946 61.5196 17 61.2652 17 61C17 60.7348 16.8946 60.4804 16.7071 60.2929C16.5196 60.1054 16.2652 60 16 60H14.72L14.39 59H17C17.7949 58.9976 18.5566 58.6808 19.1187 58.1187C19.6808 57.5566 19.9976 56.7949 20 56V50C19.9976 49.2051 19.6808 48.4434 19.1187 47.8813C18.5566 47.3192 17.7949 47.0024 17 47V47ZM9.39 60L9.72 59H12.28L12.61 60H9.39ZM17 57H5C4.73478 57 4.48043 56.8946 4.29289 56.7071C4.10536 56.5196 4 56.2652 4 56H18C18 56.2652 17.8946 56.5196 17.7071 56.7071C17.5196 56.8946 17.2652 57 17 57ZM18 54H4V50C4 49.7348 4.10536 49.4804 4.29289 49.2929C4.48043 49.1054 4.73478 49 5 49H17C17.2652 49 17.5196 49.1054 17.7071 49.2929C17.8946 49.4804 18 49.7348 18 50V54Z" fill="#0871bc"/>
</svg>
