<svg width="227" viewBox="0 0 946 229" fill="none" xmlns="http://www.w3.org/2000/svg"><g clip-path="url(#clip0_3989_4149)"><path d="M143.323 124.318L89.4761 177.844L0 88.9121L35.9638 53.1764L53.6896 70.8111L71.573 53.0404L143.323 124.318Z" fill="#165586"></path><path d="M35.9637 53.1763L89.4761 0L178.933 88.912L143.481 124.24L125.066 105.964L107.103 123.813L35.9637 53.1763Z" fill="#3B7AFD"></path><path d="M89.476 35.2501L53.7092 70.811L71.5729 88.6595L89.2988 106.139L71.8093 123.521L89.5351 141.195L124.908 106.139L123.648 104.877L107.143 88.4459L89.4169 70.9664L107.3 53.1956L89.476 35.2501Z" fill="white"></path><path d="M35.9635 53.1763L18.2377 70.8693L0.0785522 88.912L17.8044 106.547L35.6878 124.318L53.8273 106.275L35.9635 88.5041L53.6894 70.811L35.9635 53.1763Z" fill="#F73B7B"></path><path d="M143.323 124.318L161.049 106.702L178.952 88.912L142.772 52.9626L124.869 70.7528L142.594 88.4265L124.869 106.042L143.323 124.318Z" fill="#11CAD1"></path><path d="M226.162 120.996C228.453 121.04 230.741 120.812 232.977 120.317C234.516 119.934 235.971 119.275 237.27 118.374C238.287 117.705 239.086 116.761 239.575 115.655C240.005 114.506 240.219 113.288 240.205 112.062C240.197 110.659 239.832 109.28 239.144 108.052C238.456 106.824 237.466 105.785 236.266 105.032C231.959 102.44 227.323 100.422 222.479 99.0306C219.643 98.0207 216.807 96.8942 213.971 95.6124C211.214 94.3694 208.653 92.7406 206.368 90.7764C204.076 88.7928 202.203 86.3842 200.853 83.6876C199.357 80.5309 198.635 77.0712 198.746 73.5883C198.687 69.8893 199.454 66.2228 200.991 62.8482C202.462 59.6972 204.637 56.9152 207.353 54.7106C210.318 52.3708 213.716 50.6227 217.358 49.5638C221.652 48.3059 226.114 47.6969 230.593 47.7577C239.502 47.5772 248.312 49.6287 256.197 53.7201L250.584 68.9854C247.995 67.6758 245.301 66.5781 242.529 65.7032C239.068 64.6775 235.466 64.1926 231.854 64.266C228.383 64.0162 224.909 64.6868 221.79 66.2082C220.8 66.8228 219.995 67.6871 219.459 68.7115C218.922 69.736 218.673 70.8833 218.737 72.0346C218.711 73.4107 219.102 74.7632 219.859 75.919C220.717 77.0885 221.802 78.0787 223.05 78.8322C224.544 79.7721 226.127 80.5657 227.777 81.2016C229.569 81.9008 231.559 82.6194 233.686 83.3574C238.176 85.0276 242.115 86.6655 245.503 88.271C248.56 89.6987 251.36 91.6076 253.795 93.9227C255.996 96.0514 257.685 98.6397 258.738 101.497C259.899 104.892 260.445 108.462 260.353 112.043C260.353 120.058 257.524 126.286 251.864 130.727C246.205 135.168 237.671 137.382 226.26 137.369C222.788 137.394 219.318 137.16 215.881 136.67C213.123 136.286 210.393 135.728 207.707 134.999C205.617 134.439 203.57 133.731 201.582 132.882C200.115 132.257 198.682 131.557 197.289 130.785L202.784 115.384C205.815 117.016 209.018 118.319 212.336 119.268C216.839 120.484 221.494 121.066 226.162 120.996V120.996Z" fill="black"></path><path d="M335.452 102.993C335.508 107.777 334.749 112.537 333.207 117.073C331.834 121.118 329.621 124.836 326.707 127.988C323.857 131.017 320.386 133.414 316.525 135.019C312.307 136.716 307.785 137.555 303.23 137.485C298.714 137.548 294.232 136.709 290.054 135.019C286.186 133.426 282.713 131.027 279.871 127.988C276.941 124.828 274.69 121.115 273.254 117.073C271.626 112.554 270.819 107.788 270.871 102.993C270.816 98.2112 271.643 93.4598 273.313 88.9704C274.799 84.961 277.09 81.2884 280.049 78.172C282.941 75.1752 286.436 72.807 290.31 71.219C298.667 67.8658 308.019 67.8519 316.387 71.1802C320.241 72.7623 323.711 75.132 326.569 78.1331C329.485 81.2567 331.729 84.93 333.167 88.9315C334.769 93.4477 335.543 98.2091 335.452 102.993ZM316.465 102.993C316.727 98.262 315.532 93.5636 313.038 89.5142C311.902 87.9924 310.418 86.7554 308.708 85.9029C306.997 85.0504 305.107 84.6062 303.191 84.6062C301.274 84.6062 299.384 85.0504 297.674 85.9029C295.963 86.7554 294.48 87.9924 293.343 89.5142C290.794 93.5437 289.57 98.2511 289.837 102.993C289.583 107.77 290.805 112.511 293.343 116.588C294.453 118.147 295.928 119.419 297.642 120.297C299.356 121.176 301.259 121.634 303.191 121.634C305.122 121.634 307.026 121.176 308.74 120.297C310.454 119.419 311.928 118.147 313.038 116.588C315.494 112.483 316.659 107.751 316.387 102.993H316.465Z" fill="black"></path><path d="M376.044 137C371.591 137.052 367.153 136.47 362.868 135.271C359.871 134.423 357.127 132.87 354.872 130.746C352.932 128.779 351.57 126.328 350.932 123.657C350.188 120.592 349.831 117.448 349.869 114.296V42.4362L368.481 39.4647V110.587C368.474 112.083 368.599 113.578 368.855 115.053C369.07 116.267 369.562 117.415 370.293 118.413C371.109 119.402 372.166 120.171 373.365 120.647C375.075 121.313 376.886 121.687 378.723 121.754L376.044 137Z" fill="black"></path><path d="M405.863 135.757C401.608 127.483 397.282 117.805 392.883 106.722C388.485 95.6384 384.329 83.5517 380.416 70.4615H400.112C400.939 73.6985 401.917 77.2008 403.046 80.9686C404.189 84.717 405.351 88.5236 406.572 92.3885C407.793 96.2534 408.994 99.9824 410.196 103.614C411.397 107.246 412.618 110.567 413.78 113.539C414.864 110.567 416.045 107.265 417.286 103.614C418.527 99.9629 419.768 96.234 420.989 92.3885C422.21 88.5431 423.372 84.7364 424.495 80.9686C425.617 77.2008 426.602 73.705 427.449 70.4615H446.691C442.752 83.5517 438.596 95.6384 434.224 106.722C429.852 117.805 425.532 127.483 421.264 135.757H405.863Z" fill="black"></path><path d="M451.733 103.614C451.622 98.4221 452.532 93.258 454.412 88.407C456.004 84.3557 458.409 80.6631 461.483 77.5503C464.332 74.6931 467.753 72.4511 471.527 70.9664C475.239 69.4882 479.204 68.7298 483.207 68.7329C492.542 68.7329 499.915 71.5685 505.325 77.2396C510.734 82.9107 513.439 91.249 513.439 102.255C513.439 103.323 513.439 104.508 513.301 105.789C513.163 107.071 513.144 108.198 513.065 109.188H470.838C470.999 110.998 471.565 112.75 472.494 114.318C473.424 115.886 474.695 117.232 476.215 118.258C480 120.669 484.458 121.844 488.958 121.618C492.328 121.622 495.692 121.31 499.002 120.686C501.773 120.213 504.481 119.438 507.077 118.374L509.559 133.407C508.294 134.016 506.976 134.51 505.62 134.883C503.796 135.424 501.942 135.859 500.066 136.184C498.031 136.573 495.845 136.883 493.507 137.116C491.186 137.372 488.852 137.502 486.515 137.505C481.254 137.613 476.02 136.729 471.094 134.902C466.983 133.334 463.272 130.894 460.222 127.755C457.327 124.679 455.155 121.012 453.861 117.015C452.432 112.688 451.714 108.164 451.733 103.614V103.614ZM495.438 96.5446C495.357 94.9839 495.086 93.4384 494.63 91.9417C494.183 90.5231 493.461 89.2037 492.503 88.0574C491.514 86.8628 490.279 85.8895 488.879 85.2024C487.183 84.4064 485.32 84.0203 483.443 84.076C481.601 84.0296 479.771 84.3878 478.086 85.1247C476.648 85.7891 475.367 86.7416 474.324 87.9215C473.31 89.1168 472.529 90.4863 472.02 91.9612C471.474 93.4735 471.078 95.0346 470.838 96.6224L495.438 96.5446Z" fill="black"></path><path d="M607.977 92.6991C608.094 99.3135 606.993 105.894 604.727 112.121C602.804 117.36 599.807 122.153 595.923 126.201C592.285 129.927 587.87 132.829 582.983 134.708C572.936 138.514 561.814 138.514 551.766 134.708C546.888 132.824 542.481 129.922 538.846 126.201C534.967 122.15 531.971 117.358 530.042 112.121C525.727 99.5226 525.727 85.8756 530.042 73.2775C531.978 68.061 534.974 63.2893 538.846 59.2551C542.481 55.5343 546.888 52.6325 551.766 50.7485C561.814 46.9424 572.936 46.9424 582.983 50.7485C587.87 52.6273 592.285 55.5296 595.923 59.2551C599.796 63.2893 602.792 68.061 604.727 73.2775C607.003 79.5018 608.104 86.084 607.977 92.6991V92.6991ZM598.976 92.6991C599.046 87.4367 598.289 82.1954 596.731 77.1618C595.387 72.9117 593.227 68.9557 590.369 65.5089C587.675 62.3258 584.271 59.8 580.423 58.1287C572.064 54.737 562.685 54.737 554.327 58.1287C550.516 59.8158 547.148 62.3402 544.479 65.5089C541.615 68.9544 539.448 72.9104 538.098 77.1618C535.104 87.3428 535.104 98.1526 538.098 108.334C539.448 112.585 541.615 116.541 544.479 119.986C547.146 123.171 550.514 125.715 554.327 127.425C558.455 129.148 562.892 130.035 567.375 130.035C571.858 130.035 576.295 129.148 580.423 127.425C584.266 125.718 587.666 123.175 590.369 119.986C593.227 116.54 595.387 112.584 596.731 108.334C598.3 103.269 599.057 97.994 598.976 92.6991V92.6991Z" fill="black"></path><path d="M626.471 73.8215C628.893 73.1612 632.123 72.4232 636.2 71.588C641.142 70.6818 646.163 70.2655 651.188 70.3451C655.395 70.2135 659.585 70.934 663.498 72.462C666.629 73.7271 669.352 75.8083 671.376 78.4827C673.422 81.2799 674.851 84.4688 675.571 87.8439C676.431 91.8007 676.847 95.8388 676.812 99.8853V135.757H668.697V102.488C668.756 98.6214 668.439 94.7584 667.752 90.9514C667.299 88.1699 666.237 85.5191 664.64 83.1827C663.207 81.2119 661.202 79.7155 658.889 78.8906C656.007 77.9523 652.982 77.512 649.947 77.5893C646.654 77.5636 643.363 77.7713 640.1 78.2108C638.257 78.4202 636.437 78.7974 634.664 79.3373V135.66H626.55V73.8215H626.471Z" fill="black"></path><path d="M713.879 136.883C711.452 136.853 709.041 136.501 706.71 135.835C704.801 135.288 703.048 134.31 701.589 132.98C700.151 131.598 699.076 129.891 698.457 128.008C697.69 125.537 697.337 122.958 697.414 120.375V40.9406L705.528 39.4452V120.122C705.479 121.733 705.665 123.342 706.08 124.9C706.383 125.981 706.967 126.965 707.773 127.755C708.608 128.502 709.616 129.035 710.708 129.309C712.127 129.683 713.567 129.975 715.021 130.183L713.879 136.883Z" fill="black"></path><path d="M739.365 52.2246C739.411 53.058 739.279 53.8917 738.977 54.6713C738.675 55.451 738.21 56.1593 737.612 56.7499C736.473 57.8356 734.951 58.4426 733.368 58.4426C731.784 58.4426 730.262 57.8356 729.123 56.7499C727.992 55.5064 727.367 53.8949 727.367 52.2246C727.367 50.5543 727.992 48.9429 729.123 47.6994C730.262 46.6137 731.784 46.0067 733.368 46.0067C734.951 46.0067 736.473 46.6137 737.612 47.6994C738.206 48.2929 738.668 49.0015 738.97 49.7805C739.272 50.5595 739.406 51.3917 739.365 52.2246V52.2246ZM737.395 135.737H729.281V71.6462H737.395V135.737Z" fill="black"></path><path d="M758.981 73.8215C761.384 73.1612 764.627 72.4167 768.711 71.588C773.652 70.6809 778.673 70.2646 783.699 70.3451C787.906 70.2135 792.095 70.934 796.009 72.462C799.14 73.7271 801.863 75.8083 803.887 78.4827C805.933 81.2799 807.362 84.4688 808.082 87.8439C808.942 91.8007 809.358 95.8388 809.323 99.8853V135.757H801.208V102.488C801.267 98.6214 800.95 94.7584 800.263 90.9514C799.809 88.1699 798.747 85.5191 797.151 83.1827C795.713 81.2162 793.71 79.7209 791.4 78.8906C788.518 77.9523 785.493 77.512 782.458 77.5893C779.165 77.5636 775.874 77.7713 772.611 78.2108C770.767 78.4202 768.947 78.7974 767.175 79.3373V135.66H759.06V73.8215H758.981Z" fill="black"></path><path d="M826.162 103.614C826.062 98.6078 826.89 93.6254 828.604 88.9121C830.025 85.0371 832.192 81.4694 834.986 78.405C837.475 75.6923 840.542 73.5566 843.967 72.1512C847.273 70.7883 850.822 70.0884 854.405 70.0926C857.941 69.9497 861.465 70.5711 864.731 71.9131C867.997 73.2551 870.926 75.2852 873.313 77.8612C878.027 83.0403 880.384 90.9384 880.384 101.556C880.384 102.235 880.384 102.896 880.384 103.498C880.384 104.1 880.265 104.78 880.187 105.343H834.887C835.137 113.202 837.106 119.249 840.796 123.482C844.459 127.697 850.309 129.814 858.285 129.814C861.828 129.919 865.366 129.5 868.783 128.571C870.701 127.993 872.577 127.286 874.396 126.454L875.736 133.329C873.636 134.33 871.438 135.117 869.177 135.679C865.544 136.696 861.786 137.212 858.01 137.214C853.059 137.339 848.131 136.494 843.514 134.728C839.717 133.215 836.341 130.832 833.666 127.775C831.026 124.691 829.109 121.07 828.053 117.17C826.787 112.76 826.151 108.198 826.162 103.614ZM872.013 98.5257C871.836 91.8253 870.26 86.6009 867.267 82.8914C865.743 81.0313 863.793 79.5544 861.578 78.582C859.363 77.6096 856.945 77.1695 854.524 77.298C851.792 77.2372 849.087 77.8373 846.645 79.0459C844.392 80.2056 842.387 81.7814 840.737 83.6877C839.019 85.6934 837.684 87.99 836.798 90.4658C835.824 93.0527 835.253 95.7702 835.104 98.5257H872.013Z" fill="black"></path><path d="M919.676 78.6575C916.182 78.6984 912.712 78.0786 909.454 76.8319C906.457 75.6966 903.725 73.9735 901.423 71.7669C899.121 69.5603 897.297 66.916 896.061 63.9942C893.539 57.7995 893.539 50.8839 896.061 44.6891C897.287 41.774 899.096 39.132 901.379 36.9205C903.709 34.7219 906.452 32.9934 909.454 31.8321C916.043 29.424 923.289 29.424 929.878 31.8321C932.915 32.9831 935.692 34.7121 938.052 36.9205C940.365 39.1235 942.201 41.7663 943.448 44.6891C946.022 50.8739 946.022 57.8095 943.448 63.9942C942.181 66.9256 940.325 69.574 937.993 71.7801C935.661 73.9863 932.901 75.7047 929.878 76.8319C926.625 78.0712 923.163 78.6907 919.676 78.6575V78.6575ZM919.676 75.1422C923.514 75.2001 927.303 74.2909 930.686 72.5009C933.988 70.7598 936.735 68.1499 938.623 64.9613C940.511 61.7727 941.466 58.1302 941.38 54.4388C941.4 51.6451 940.844 48.8765 939.745 46.3012C938.677 43.8292 937.139 41.5813 935.215 39.6784C933.242 37.762 930.897 36.2562 928.322 35.2503C925.569 34.1836 922.634 33.6495 919.676 33.6771C916.737 33.6422 913.819 34.1767 911.089 35.2503C908.547 36.2668 906.232 37.7646 904.274 39.659C902.334 41.5255 900.805 43.7669 899.784 46.2429C897.722 51.4641 897.722 57.2581 899.784 62.4793C900.787 64.9715 902.31 67.2279 904.254 69.1021C906.216 70.9961 908.53 72.4996 911.069 73.5302C913.802 74.6133 916.731 75.1354 919.676 75.0645V75.1422ZM908.686 39.4842H921.901C923.66 39.4474 925.385 39.9645 926.825 40.9602C928.234 41.92 929.389 43.1987 930.193 44.6891C930.99 46.1172 931.41 47.7202 931.414 49.3504C931.41 50.5607 931.176 51.7595 930.725 52.8851C930.263 54.0003 929.595 55.0211 928.755 55.8954C927.959 56.7406 926.984 57.4035 925.899 57.8376L932.891 68.9661H925.624L919.38 59.0612H915.126V68.9661H908.686V39.4842ZM921.37 53.7785C921.879 53.7991 922.385 53.7027 922.85 53.4971C923.315 53.2915 923.725 52.9823 924.048 52.5937C924.754 51.661 925.103 50.5122 925.033 49.3504C925.082 48.7597 925.008 48.1653 924.815 47.6041C924.622 47.0429 924.314 46.5267 923.91 46.0875C923.56 45.7398 923.142 45.4645 922.682 45.2778C922.222 45.091 921.729 44.9966 921.232 44.9999H915.126V53.7008L921.37 53.7785Z" fill="black"></path></g><g clip-path="url(#clip1_3989_4149)"><path d="M572.494 184.755C574.079 184.755 575.37 184.882 576.369 185.129C577.367 185.376 578.019 185.593 578.318 185.786L577.583 188.98C577.17 188.793 576.554 188.588 575.747 188.383C574.934 188.172 573.911 188.07 572.661 188.07C570.06 188.07 568.201 188.733 567.089 190.064C565.977 191.396 565.42 193.523 565.42 196.452V199.531H577.188V202.665H565.42V229.005H561.743V196.332C561.743 192.493 562.622 189.606 564.374 187.666C566.126 185.719 568.835 184.755 572.494 184.755Z" fill="black"></path><path d="M607.964 213.603C607.964 215.923 607.635 218.032 606.971 219.93C606.313 221.828 605.387 223.449 604.197 224.775C603.007 226.107 601.602 227.143 599.981 227.885C598.361 228.626 596.567 228.993 594.606 228.993C592.644 228.993 590.851 228.626 589.23 227.885C587.61 227.143 586.205 226.107 585.015 224.775C583.825 223.443 582.904 221.828 582.24 219.93C581.583 218.032 581.248 215.923 581.248 213.603C581.248 211.283 581.577 209.173 582.24 207.275C582.898 205.377 583.825 203.75 585.015 202.4C586.205 201.05 587.61 200.008 589.23 199.266C590.851 198.525 592.644 198.152 594.606 198.152C596.567 198.152 598.361 198.525 599.981 199.266C601.602 200.008 603.007 201.056 604.197 202.4C605.387 203.75 606.307 205.377 606.971 207.275C607.635 209.173 607.964 211.289 607.964 213.603ZM604.059 213.603C604.059 209.915 603.21 206.98 601.512 204.792C599.814 202.605 597.512 201.514 594.612 201.514C591.706 201.514 589.41 202.605 587.712 204.792C586.013 206.98 585.164 209.915 585.164 213.603C585.164 217.291 586.013 220.219 587.712 222.383C589.41 224.552 591.706 225.631 594.612 225.631C597.518 225.631 599.814 224.546 601.512 222.383C603.21 220.219 604.059 217.291 604.059 213.603Z" fill="black"></path><path d="M625.896 198.953C627.103 198.953 628.246 199.049 629.316 199.236C630.392 199.429 631.134 199.616 631.552 199.808L630.817 203.002C630.512 202.852 629.902 202.689 628.981 202.52C628.054 202.351 626.84 202.267 625.334 202.267C623.749 202.267 622.476 202.382 621.513 202.611C620.55 202.84 619.922 203.026 619.617 203.183V229.011H615.94V200.899C616.885 200.483 618.182 200.055 619.845 199.616C621.501 199.17 623.522 198.953 625.896 198.953Z" fill="black"></path><path d="M663.404 228.999C661.252 228.999 659.111 228.933 656.982 228.8C654.854 228.668 652.635 228.354 650.333 227.86V189.546C652.145 189.202 654.124 188.949 656.271 188.775C658.423 188.606 660.421 188.515 662.268 188.515C664.756 188.515 667.052 188.696 669.144 189.058C671.237 189.419 673.037 190.04 674.55 190.908C676.057 191.782 677.235 192.933 678.084 194.355C678.933 195.783 679.357 197.537 679.357 199.628C679.357 202.785 677.85 205.274 674.831 207.094C677.318 208.046 679.016 209.336 679.919 210.969C680.822 212.602 681.277 214.446 681.277 216.501C681.277 220.647 679.776 223.762 676.78 225.853C673.784 227.951 669.324 228.999 663.404 228.999ZM658.938 204.479H663.237C665.951 204.479 667.895 204.129 669.067 203.424C670.233 202.719 670.819 201.592 670.819 200.031C670.819 198.434 670.215 197.314 669.007 196.669C667.799 196.024 666.029 195.699 663.691 195.699C662.938 195.699 662.125 195.711 661.258 195.729C660.391 195.747 659.619 195.795 658.938 195.873V204.479ZM658.938 211.264V221.472C659.577 221.551 660.277 221.605 661.03 221.641C661.784 221.677 662.615 221.695 663.518 221.695C666.155 221.695 668.289 221.316 669.91 220.556C671.53 219.797 672.343 218.387 672.343 216.338C672.343 214.512 671.662 213.211 670.304 212.433C668.947 211.656 667.004 211.264 664.475 211.264H658.938V211.264Z" fill="black"></path><path d="M713.188 227.288C711.753 227.704 709.906 228.095 707.646 228.457C705.385 228.818 703.006 228.999 700.518 228.999C697.989 228.999 695.89 228.656 694.21 227.975C692.53 227.288 691.202 226.33 690.222 225.094C689.241 223.859 688.542 222.389 688.129 220.677C687.716 218.966 687.507 217.085 687.507 215.031V198.326H695.938V214.006C695.938 216.742 696.297 218.719 697.014 219.936C697.732 221.153 699.071 221.762 701.032 221.762C701.636 221.762 702.276 221.732 702.958 221.677C703.639 221.623 704.237 221.557 704.77 221.479V198.326H713.2V227.288H713.188Z" fill="black"></path><path d="M729.656 222.1C731.204 222.1 732.293 221.949 732.938 221.642C733.578 221.34 733.901 220.75 733.901 219.876C733.901 219.189 733.489 218.592 732.657 218.08C731.826 217.568 730.565 216.989 728.867 216.339C727.545 215.844 726.349 215.332 725.273 214.802C724.197 214.272 723.282 213.633 722.528 212.892C721.775 212.15 721.189 211.265 720.776 210.24C720.364 209.216 720.155 207.98 720.155 206.534C720.155 203.72 721.189 201.496 723.264 199.863C725.339 198.23 728.185 197.41 731.808 197.41C733.62 197.41 735.354 197.573 737.01 197.892C738.667 198.218 739.988 198.567 740.969 198.947L739.498 205.564C738.517 205.22 737.453 204.919 736.299 204.654C735.145 204.389 733.859 204.256 732.424 204.256C729.781 204.256 728.466 204.997 728.466 206.48C728.466 206.823 728.52 207.125 728.633 207.39C728.747 207.655 728.974 207.914 729.315 208.161C729.656 208.408 730.116 208.673 730.702 208.963C731.288 209.252 732.03 209.565 732.938 209.909C734.786 210.602 736.311 211.283 737.519 211.952C738.726 212.62 739.677 213.35 740.377 214.121C741.076 214.898 741.567 215.76 741.848 216.712C742.129 217.658 742.272 218.761 742.272 220.008C742.272 222.967 741.166 225.203 738.96 226.722C736.753 228.24 733.632 228.999 729.596 228.999C726.953 228.999 724.759 228.77 723.007 228.313C721.255 227.855 720.035 227.475 719.359 227.174L720.776 220.274C722.211 220.846 723.682 221.292 725.189 221.611C726.69 221.937 728.185 222.1 729.656 222.1Z" fill="black"></path><path d="M757.771 190.342C757.771 191.902 757.268 193.126 756.27 194.018C755.271 194.909 754.093 195.355 752.736 195.355C751.379 195.355 750.201 194.909 749.202 194.018C748.204 193.126 747.701 191.896 747.701 190.342C747.701 188.781 748.204 187.558 749.202 186.666C750.201 185.774 751.379 185.328 752.736 185.328C754.093 185.328 755.271 185.774 756.27 186.666C757.268 187.558 757.771 188.781 757.771 190.342ZM756.975 228.999H748.544V199.007H756.975V228.999Z" fill="black"></path><path d="M764.898 200.032C766.333 199.616 768.181 199.224 770.441 198.863C772.707 198.501 775.081 198.32 777.568 198.32C780.092 198.32 782.196 198.652 783.876 199.321C785.557 199.983 786.884 200.93 787.865 202.141C788.845 203.358 789.545 204.804 789.957 206.474C790.37 208.149 790.579 210.011 790.579 212.06V228.993H782.148V213.084C782.148 210.348 781.79 208.408 781.072 207.269C780.355 206.13 779.015 205.558 777.054 205.558C776.45 205.558 775.81 205.588 775.129 205.642C774.447 205.696 773.843 205.769 773.317 205.841V228.987H764.886V200.032H764.898Z" fill="black"></path><path d="M796.804 213.434C796.804 210.776 797.21 208.444 798.017 206.449C798.831 204.455 799.895 202.792 801.216 201.46C802.538 200.128 804.057 199.122 805.773 198.441C807.489 197.754 809.253 197.416 811.064 197.416C815.286 197.416 818.628 198.718 821.08 201.321C823.532 203.924 824.757 207.757 824.757 212.813C824.757 213.307 824.739 213.85 824.704 214.44C824.668 215.031 824.626 215.555 824.59 216.007H805.468C805.653 217.754 806.466 219.14 807.901 220.171C809.336 221.195 811.256 221.708 813.672 221.708C815.22 221.708 816.733 221.563 818.228 221.28C819.717 220.997 820.931 220.641 821.875 220.225L823.005 227.125C822.551 227.354 821.947 227.583 821.194 227.812C820.44 228.041 819.597 228.24 818.676 228.409C817.75 228.577 816.763 228.722 815.705 228.837C814.646 228.951 813.594 229.005 812.535 229.005C809.857 229.005 807.531 228.608 805.546 227.806C803.566 227.005 801.922 225.914 800.624 224.528C799.321 223.142 798.364 221.497 797.736 219.598C797.115 217.688 796.804 215.639 796.804 213.434ZM816.607 210.18C816.572 209.456 816.446 208.751 816.237 208.07C816.027 207.383 815.711 206.781 815.274 206.245C814.838 205.714 814.293 205.274 813.636 204.931C812.978 204.587 812.153 204.419 811.172 204.419C810.227 204.419 809.42 204.581 808.739 204.901C808.057 205.226 807.495 205.654 807.04 206.184C806.586 206.715 806.239 207.335 805.994 208.034C805.749 208.739 805.569 209.45 805.456 210.174H816.607V210.18Z" fill="black"></path><path d="M839.801 222.1C841.35 222.1 842.438 221.949 843.084 221.642C843.724 221.34 844.047 220.75 844.047 219.876C844.047 219.189 843.634 218.592 842.803 218.08C841.972 217.568 840.71 216.989 839.012 216.339C837.691 215.844 836.495 215.332 835.419 214.802C834.342 214.272 833.427 213.633 832.674 212.892C831.921 212.15 831.335 211.265 830.922 210.24C830.51 209.216 830.3 207.98 830.3 206.534C830.3 203.72 831.335 201.496 833.41 199.863C835.484 198.23 838.331 197.41 841.954 197.41C843.766 197.41 845.5 197.573 847.156 197.892C848.818 198.218 850.134 198.567 851.114 198.947L849.643 205.564C848.663 205.22 847.599 204.919 846.445 204.654C845.291 204.389 844.005 204.256 842.57 204.256C839.927 204.256 838.612 204.997 838.612 206.48C838.612 206.823 838.665 207.125 838.779 207.39C838.893 207.655 839.12 207.914 839.461 208.161C839.802 208.408 840.262 208.673 840.848 208.963C841.434 209.252 842.175 209.565 843.084 209.909C844.932 210.602 846.457 211.283 847.664 211.952C848.872 212.62 849.823 213.35 850.523 214.121C851.222 214.898 851.712 215.76 851.993 216.712C852.274 217.658 852.418 218.761 852.418 220.008C852.418 222.967 851.312 225.203 849.105 226.722C846.899 228.24 843.778 228.999 839.742 228.999C837.099 228.999 834.904 228.77 833.152 228.313C831.401 227.855 830.181 227.475 829.505 227.174L830.922 220.274C832.357 220.846 833.828 221.292 835.335 221.611C836.842 221.937 838.331 222.1 839.801 222.1Z" fill="black"></path><path d="M867.241 222.1C868.79 222.1 869.878 221.949 870.524 221.642C871.163 221.34 871.486 220.75 871.486 219.876C871.486 219.189 871.074 218.592 870.243 218.08C869.411 217.568 868.15 216.989 866.452 216.339C865.13 215.844 863.934 215.332 862.858 214.802C861.782 214.272 860.867 213.633 860.114 212.892C859.36 212.15 858.774 211.265 858.362 210.24C857.949 209.216 857.74 207.98 857.74 206.534C857.74 203.72 858.774 201.496 860.849 199.863C862.924 198.23 865.77 197.41 869.394 197.41C871.205 197.41 872.939 197.573 874.596 197.892C876.258 198.218 877.573 198.567 878.554 198.947L877.083 205.564C876.102 205.22 875.038 204.919 873.884 204.654C872.73 204.389 871.444 204.256 870.009 204.256C867.367 204.256 866.051 204.997 866.051 206.48C866.051 206.823 866.105 207.125 866.219 207.39C866.332 207.655 866.559 207.914 866.9 208.161C867.241 208.408 867.701 208.673 868.287 208.963C868.873 209.252 869.615 209.565 870.524 209.909C872.371 210.602 873.896 211.283 875.104 211.952C876.312 212.62 877.262 213.35 877.962 214.121C878.662 214.898 879.152 215.76 879.433 216.712C879.714 217.658 879.857 218.761 879.857 220.008C879.857 222.967 878.751 225.203 876.545 226.722C874.338 228.24 871.217 228.999 867.181 228.999C864.538 228.999 862.344 228.77 860.592 228.313C858.84 227.855 857.62 227.475 856.945 227.174L858.362 220.274C859.797 220.846 861.268 221.292 862.774 221.611C864.275 221.937 865.77 222.1 867.241 222.1Z" fill="black"></path></g><defs><clipPath id="clip0_3989_4149"><rect width="945.378" height="177.843" fill="white"></rect></clipPath><clipPath id="clip1_3989_4149"><rect width="879.857" height="216.52" fill="white" transform="translate(0 12.4802)"></rect></clipPath></defs></svg>