<svg id="SvgjsSvg1001" width="288" height="288" xmlns="http://www.w3.org/2000/svg" version="1.1" xmlns:xlink="http://www.w3.org/1999/xlink" xmlns:svgjs="http://svgjs.com/svgjs"><defs id="SvgjsDefs1002"></defs><g id="SvgjsG1008"><svg xmlns="http://www.w3.org/2000/svg" viewBox="0 0 64 64" width="288" height="288"><path d="M43 2H5A3 3 0 002 5V59a3 3 0 003 3H37a1 1 0 00.707-.293l8-8A1 1 0 0046 53V5A3 3 0 0043 2zM4 59V5A1 1 0 015 4H43a1 1 0 011 1V52H39a3 3 0 00-3 3v5H5A1 1 0 014 59zm38.586-5L38 58.586V55a1 1 0 011-1zM56 2a6.006 6.006 0 00-6 6V49a1 1 0 00.077.385l5 12a1 1 0 001.846 0l5-12A1 1 0 0062 49V8A6.006 6.006 0 0056 2zm0 2a4 4 0 014 4v4H52V8A4 4 0 0156 4zM52 48V14h8V48zm4 10.4L52.5 50h7z" fill="#6666ff" class="color000 svgShape"></path><rect width="2" height="2" x="55" y="18" fill="#6666ff" class="color000 svgShape"></rect><rect width="2" height="20" x="55" y="22" fill="#6666ff" class="color000 svgShape"></rect><path d="M14.293 22.707l1.414-1.414L10.414 16l5.293-5.293L14.293 9.293l-6 6a1 1 0 000 1.414zM23.707 22.707l6-6a1 1 0 000-1.414l-6-6-1.414 1.414L27.586 16l-5.293 5.293z" fill="#6666ff" class="color000 svgShape"></path><rect width="16.492" height="1.999" x="10.754" y="15" transform="rotate(-75.977 19 16)" fill="#6666ff" class="color000 svgShape"></rect><rect width="4" height="2" x="8" y="28" fill="#6666ff" class="color000 svgShape"></rect><rect width="26" height="2" x="14" y="28" fill="#6666ff" class="color000 svgShape"></rect><rect width="26" height="2" x="8" y="46" fill="#6666ff" class="color000 svgShape"></rect><rect width="4" height="2" x="36" y="46" fill="#6666ff" class="color000 svgShape"></rect><rect width="32" height="2" x="8" y="34" fill="#6666ff" class="color000 svgShape"></rect><rect width="32" height="2" x="8" y="40" fill="#6666ff" class="color000 svgShape"></rect><rect width="2" height="2" x="34" y="8" fill="#6666ff" class="color000 svgShape"></rect><rect width="2" height="2" x="38" y="8" fill="#6666ff" class="color000 svgShape"></rect><rect width="2" height="2" x="34" y="12" fill="#6666ff" class="color000 svgShape"></rect><rect width="2" height="2" x="38" y="12" fill="#6666ff" class="color000 svgShape"></rect><rect width="2" height="2" x="34" y="16" fill="#6666ff" class="color000 svgShape"></rect><rect width="2" height="2" x="38" y="16" fill="#6666ff" class="color000 svgShape"></rect><rect width="2" height="2" x="34" y="20" fill="#6666ff" class="color000 svgShape"></rect><rect width="2" height="2" x="38" y="20" fill="#6666ff" class="color000 svgShape"></rect></svg></g></svg>